<svg width="48" height="48" id="Layer_1" data-name="Layer 1" xmlns="http://www.w3.org/2000/svg" viewBox="0 0 83.69 47.43"><defs><style>.cls-1{fill:#00bfeb;}</style></defs><title>kauc</title><path class="cls-1" d="M85.18,37.26a6.69,6.69,0,0,0-6.67,6.67v7.86h-57V43.93a6.67,6.67,0,1,0-13.34,0V58.46a6.69,6.69,0,0,0,6.67,6.67h1.1v6.25a2.34,2.34,0,0,0,2.34,2.33h.89a2.34,2.34,0,0,0,2.34-2.33V65.13h57v6.25a2.34,2.34,0,0,0,2.34,2.33h.89a2.34,2.34,0,0,0,2.34-2.33V65.13h1.1a6.69,6.69,0,0,0,6.67-6.67V43.93A6.69,6.69,0,0,0,85.18,37.26Z" transform="translate(-8.15 -26.29)"/><path class="cls-1" d="M24.69,44v4.43H75.18V44a8.78,8.78,0,0,1,2.51-5.86,7,7,0,0,0,1.77-5.82,7.33,7.33,0,0,0-7.36-6H27.72a7.34,7.34,0,0,0-7.37,6,7,7,0,0,0,1.79,5.8A8.83,8.83,0,0,1,24.69,44Z" transform="translate(-8.15 -26.29)"/></svg>