<svg id="Layer_1" data-name="Layer 1" xmlns="http://www.w3.org/2000/svg" viewBox="0 0 44.25 44.25"><defs><style>.cls-1{fill:#3dc6f1;}</style></defs><title>fb</title><path class="cls-1" d="M44.08,3.27H6.54A4.27,4.27,0,0,0,2.27,7.54V43.26a4.28,4.28,0,0,0,4.27,4.27H25.91V32.21a1.83,1.83,0,0,0-1.83-1.82H22a1.83,1.83,0,0,1-1.82-1.82v-3A1.82,1.82,0,0,1,22,23.71h2.12a1.83,1.83,0,0,0,1.83-1.82V18.78c0-5.71,3.49-8.82,8.59-8.82,1.31,0,2.52,0,3.46.11a1.81,1.81,0,0,1,1.69,1.81v2.19a1.9,1.9,0,0,1-1.81,2.12H36.11c-2.77,0-3.3,1.31-3.3,3.25v2.44a1.82,1.82,0,0,0,1.82,1.82h2.72a1.82,1.82,0,0,1,1.81,2.05l-.4,3A1.81,1.81,0,0,1,37,30.38H34.63a1.82,1.82,0,0,0-1.82,1.82V47.53h9.45a4.28,4.28,0,0,0,4.27-4.27V5.72a2.45,2.45,0,0,0-2.45-2.45Zm0,0" transform="translate(-2.27 -3.27)"/></svg>