<svg  width="45" height="45" id="Layer_1" data-name="Layer 1" xmlns="http://www.w3.org/2000/svg" viewBox="0 0 100 100"><defs><style>.cls-1{fill:#fc507e;}</style></defs><title>Untitled-1</title><path class="cls-1" d="M67.88,62.44l0,0c.4-.28.8-.56,1.19-.86l.13-.11c.36-.27.71-.55,1.06-.84l.16-.15c.34-.29.68-.58,1-.88l.08-.09c.27-.25.55-.5.81-.77a31.34,31.34,0,0,0,7.88-13.16v0c.09-.28.16-.57.24-.86s.14-.49.2-.74a1.24,1.24,0,0,1,0-.16,31.41,31.41,0,0,0-.1-15.23c-.08-.32-.18-.63-.27-.94,0-.1,0-.2-.09-.31-.1-.35-.21-.69-.33-1-.06-.16-.11-.32-.16-.48s-.23-.61-.35-.91-.15-.39-.23-.58-.23-.55-.35-.82l-.29-.63-.36-.74-.36-.68-.36-.66L77.05,20c-.12-.19-.24-.39-.37-.58s-.32-.51-.49-.75l-.35-.51-.57-.79L75,17l-.67-.84-.26-.3c-.26-.31-.53-.61-.81-.91l-.12-.13c-.24-.26-.48-.52-.74-.78a31.44,31.44,0,0,0-14.2-8.17l-.56-.15-.35-.08a31.43,31.43,0,0,0-15.08.14c-.34.08-.68.19-1,.28L41,6.11l-1.2.38-.29.1c-.4.14-.79.29-1.18.45l-.24.09c-.43.17-.85.36-1.27.55l-.12.05a31.29,31.29,0,0,0-12.13,9.94,30.83,30.83,0,0,0-3,5,31.33,31.33,0,0,0-2.15,21.54c.09.34.19.68.29,1l.05.2c.12.4.25.8.39,1.19a2.47,2.47,0,0,0,.1.29c.14.4.29.8.44,1.19a1.6,1.6,0,0,0,.1.23c.17.44.36.86.55,1.29l.05.1A31.73,31.73,0,0,0,39.67,66.25h0c.56.19,1.13.37,1.71.53l.53.15,1.21.29c.6.13,1.2.24,1.8.34h0V74H33.74V84.12H45v11.1H55.05V84.12H66.4V74H55.05V67.57A31.15,31.15,0,0,0,67.88,62.44ZM44.32,57.12c-.35-.1-.71-.2-1.06-.32s-.53-.18-.8-.28c-.42-.16-.83-.33-1.25-.51l-.6-.29c-.44-.21-.87-.44-1.29-.68l-.61-.36c-.37-.24-.74-.48-1.1-.73s-.53-.38-.79-.59l-.76-.61c-.33-.29-.66-.59-1-.9-.17-.15-.33-.31-.49-.47q-.54-.57-1.05-1.17l-.37-.44c-.32-.41-.62-.82-.9-1.24-.12-.17-.25-.35-.36-.52-.26-.4-.49-.81-.71-1.21-.13-.23-.25-.45-.36-.67-.2-.38-.37-.76-.54-1.15L30,44.17c-.14-.37-.27-.74-.39-1.12s-.19-.58-.27-.88-.21-.8-.29-1.21c-.06-.25-.12-.51-.16-.77q-.13-.72-.21-1.44c0-.18,0-.35-.05-.52-.05-.56-.08-1.12-.08-1.69a2.71,2.71,0,0,1,0-.29c0-.61,0-1.21.09-1.82,0-.07,0-.15,0-.22.06-.6.15-1.19.26-1.78l.06-.33c.11-.53.24-1.06.39-1.58.05-.19.1-.37.16-.56q.21-.64.45-1.29c.11-.27.22-.55.34-.83s.3-.66.46-1,.34-.66.53-1,.32-.56.49-.84.41-.63.62-.94.43-.6.66-.89.38-.48.58-.72.6-.69.92-1c.16-.17.32-.33.49-.49.37-.36.75-.7,1.13-1,.16-.13.32-.27.48-.39.39-.32.79-.61,1.2-.89l.56-.37c.39-.25.78-.48,1.18-.7l.69-.38,1.13-.52.83-.35c.36-.14.73-.26,1.1-.38l.9-.28a21.86,21.86,0,0,1,5.79-.8,21.62,21.62,0,0,1,8,1.54l.16.06a18.83,18.83,0,0,1,1.71.79l.44.24c.36.2.71.41,1.06.63s.62.4.93.61.6.43.9.66.48.38.71.58.69.6,1,.93c.16.16.32.31.48.48.37.37.71.75,1,1.15.13.15.26.3.38.46.32.39.61.8.9,1.22.12.18.25.35.36.54.26.39.49.79.71,1.2.13.22.25.44.37.67.19.38.36.76.53,1.14s.23.54.34.82.27.74.39,1.11.19.59.27.89.2.77.28,1.16.13.58.18.87c.08.44.14.88.19,1.33,0,.23,0,.45.07.68,0,.49.06,1,.07,1.46v.59c0,.49,0,1-.07,1.47,0,.22,0,.44-.07.65,0,.45-.11.89-.19,1.33,0,.29-.11.56-.17.84s-.16.73-.26,1.09-.21.71-.33,1.07-.18.53-.28.8-.33.84-.51,1.25c-.09.19-.18.39-.28.59-.21.44-.44.87-.69,1.3a5.09,5.09,0,0,1-.3.5c-.25.42-.52.83-.8,1.23l-.4.55c-.27.36-.56.71-.85,1s-.39.44-.59.65-.55.59-.84.86-.45.42-.68.62-.6.52-.91.77-.46.34-.7.51-.69.5-1,.73l-.64.38c-.41.24-.82.47-1.24.68q-.28.15-.57.27c-.46.22-.93.42-1.41.61l-.55.19c-.49.17-1,.33-1.5.47L55,57.3c-.44.1-.87.19-1.31.27l-1,.14c-.32,0-.65.08-1,.1s-.88.06-1.32.07h-.7c-.49,0-1,0-1.47-.07l-.66-.06c-.45,0-.9-.12-1.34-.2l-.83-.16Q44.86,57.27,44.32,57.12Z"/></svg>