<svg width="269" height="301" viewBox="0 0 269 301" fill="none" xmlns="http://www.w3.org/2000/svg">
<g clip-path="url(#clip0)">
<path fill-rule="evenodd" clip-rule="evenodd" d="M254.295 0.258027C253.802 0.346535 251.461 0.814879 249.094 1.29899C246.727 1.7831 239.545 3.215 233.133 4.48099C226.723 5.74734 218.733 7.33941 215.379 8.01953C212.026 8.69964 208.514 9.36901 207.574 9.50697C206.634 9.64493 205.802 9.86172 205.723 9.98893C205.55 10.2677 208.267 18.2833 209.587 21.3911C212.549 28.365 217.856 36.3759 221.633 39.5765C226.81 43.9629 234.149 46.7951 242.19 47.51C243.719 47.6458 244.967 47.8558 244.964 47.9766C244.961 48.0973 244.562 50.8264 244.078 54.041C242.354 65.4722 239.018 78.1955 235.275 87.6125C233.697 91.5821 230.388 98.4328 229.199 100.194C228.601 101.079 227.872 102.266 227.58 102.831L227.048 103.859L231.256 106.077C233.571 107.296 236.11 108.764 236.899 109.336C237.688 109.909 239.362 111.129 240.617 112.046C247.116 116.795 253.582 124.786 257.579 133.006C258.619 135.143 260.844 141.55 261.291 143.692C261.853 146.383 261.939 146.147 263.789 136.883C265.111 130.264 266.516 119.292 267.573 107.321C269.382 86.8428 267.727 60.6895 263.085 36.3709C262.408 32.8234 261.347 27.2602 260.727 24.0084C260.107 20.7565 259.071 15.8384 258.423 13.0792C257.775 10.32 256.868 6.24865 256.407 4.03128C255.946 1.81427 255.484 0.0218852 255.381 0.0487602C255.277 0.0756349 254.788 0.169877 254.295 0.258027ZM216.822 119.809C209.017 130.761 200.007 140.833 189.164 150.726C184.15 155.302 182.58 156.658 178.437 159.999C177.253 160.954 176.204 161.838 176.105 161.964C175.746 162.421 170.138 166.546 164.357 170.605C149.672 180.916 132.245 190.524 118.181 196.064C116.208 196.841 114.11 197.698 113.518 197.966C112.926 198.236 109.375 199.507 105.627 200.791C86.0829 207.487 66.9559 211.122 48.1048 211.721L40.7955 211.954L43.195 215C47.9391 221.022 49.2001 222.501 56.49 230.59C65.2117 240.268 80.7129 255.611 94.2017 267.917C102.497 275.485 105.692 278.333 112.621 284.335C115.285 286.643 118.513 289.444 119.795 290.56C121.077 291.678 123.014 293.313 124.099 294.196C125.184 295.079 126.233 295.976 126.43 296.19C126.627 296.405 128 297.543 129.48 298.721L132.171 300.862L134.143 299.289C141.505 293.413 155.313 281.764 160.34 277.189C161.433 276.193 163.602 274.25 165.16 272.871C176.378 262.934 193.954 245.493 204.309 234.021C211.745 225.782 212.544 224.851 218.498 217.47C225.157 209.217 227.573 205.938 232.861 197.979C234.039 196.205 235.45 194.109 235.995 193.321C236.54 192.533 238.216 189.469 239.72 186.513C250.554 165.211 248.962 146.758 234.951 131.226C231.161 127.023 223.903 121.391 219.168 118.978L217.881 118.322L216.822 119.809Z" fill="#00BFEB"/>
<path fill-rule="evenodd" clip-rule="evenodd" d="M12.4308 7.07458C6.3776 30.4307 2.34189 54.318 0.458525 77.9346C-0.156947 85.6567 -0.151566 111.117 0.467134 117.71C1.11596 124.628 2.10911 131.576 3.20053 136.838C3.70661 139.278 4.12876 141.374 4.1388 141.497C4.14849 141.618 4.68792 140.267 5.33711 138.493C10.8896 123.325 22.7432 110.145 35.1455 105.351C36.3291 104.893 37.4374 104.396 37.6085 104.246C37.7796 104.096 37.1203 102.63 36.1437 100.988C33.3752 96.3329 33.0764 95.7689 30.957 91.193C27.7301 84.227 25.2262 76.3035 23.9921 69.1558C23.109 64.0388 23.1912 56.2193 24.171 52.135C24.5968 50.3612 25.0709 48.7075 25.2255 48.4606C25.3798 48.213 26.8657 47.8472 28.5324 47.6462C36.3015 46.7098 42.3813 44.5484 47.1465 41.0285C51.7633 37.6182 56.0339 31.5355 60.2734 22.3313C62.1054 18.3538 64.9938 10.1695 64.6771 9.85309C64.3998 9.5761 15.9924 0.00537653 14.8418 1.53598e-06C14.3924 -0.00179013 13.859 1.56341 12.4308 7.07458ZM127.502 80.8443C113.022 82.6016 100.615 87.0557 88.8561 94.7197C85.0829 97.1786 85.3146 96.5644 85.9057 102.532C88.3948 127.656 98.8557 145.98 115.487 154.35C118.922 156.079 124.243 157.574 128.703 158.062C140.774 159.385 153.058 154.456 162.156 144.638C171.844 134.184 178.174 117.202 178.859 99.8281L178.971 96.9965L176.46 95.0623C171.173 90.9894 162.675 86.435 156.308 84.2628C153.288 83.2322 149.131 82.1902 145.256 81.49C142.149 80.9296 130.343 80.4996 127.502 80.8443ZM44.1122 118.9C28.6117 127.238 19.2376 139.798 18.257 153.543C17.9715 157.543 18.5988 165.763 19.578 170.85C20.9337 177.893 24.4924 187.186 28.0949 193.089L29.0482 194.652L33.8902 194.437C42.6137 194.05 67.1156 191.985 72.9851 191.141C77.3436 190.515 85.8447 188.838 91.2771 187.532C94.8099 186.684 107.735 182.572 110.107 181.542L111.183 181.075L109.418 179.851C86.1603 163.712 63.3791 141.398 48.8122 120.487C47.6795 118.861 46.7236 117.535 46.6878 117.54C46.6523 117.546 45.4931 118.158 44.1122 118.9Z" fill="white"/>
</g>
<defs>
<clipPath id="clip0">
<rect width="269" height="301" fill="white"/>
</clipPath>
</defs>
</svg>
