<svg  width="35" height="35" id="Layer_1" data-name="Layer 1" xmlns="http://www.w3.org/2000/svg" viewBox="0 0 90 90"><defs><style>.cls-1{fill:#00BFEB;}</style></defs><title>Untitled-123</title><path class="cls-1" d="M95,5H52.16V16.28H75.75L61,31a35.11,35.11,0,0,0-11.54-5.46c-.22-.06-.44-.13-.67-.18l-.33-.08a35.08,35.08,0,0,0-16.91.14c-.39.1-.78.22-1.16.33l-.19.05c-.44.13-.87.28-1.3.42l-.41.14-1.13.43-.53.21c-.35.14-.68.29-1,.44l-.61.28c-.31.14-.61.3-.92.45l-.67.35-.82.46-.72.41-.74.47-.76.49-.65.45-.8.58-.55.43-.85.68-.43.37c-.31.27-.62.54-.92.82l-.24.23c-.27.25-.54.5-.8.76A35,35,0,0,0,6.58,49.27l-.06.17c-.08.27-.15.55-.23.82s-.18.64-.26,1v0a35.23,35.23,0,0,0,.09,17.16c0,.17.1.32.14.48.2.74.42,1.47.67,2.19,0,.17.11.33.16.49.27.75.57,1.5.9,2.24l.21.49c.35.77.73,1.51,1.13,2.25l.26.48c.43.75.87,1.48,1.35,2.2.05.07.09.14.14.2.48.71,1,1.4,1.52,2.07l.15.21q.84,1,1.77,2l.17.18c.23.23.44.47.68.7a35.13,35.13,0,0,0,16.08,9.2l.38.1c.73.18,1.46.33,2.2.47l1,.17c.6.09,1.19.16,1.79.22s1,.08,1.48.11l.93,0c.37,0,.75,0,1.12,0a36.27,36.27,0,0,0,5.07-.38h0c1-.14,2-.34,3-.57L48.8,94l.32-.07h0c.37-.09.72-.2,1.08-.31l.29-.08c.41-.12.81-.25,1.21-.39l.5-.17c.36-.12.71-.26,1.06-.39l.61-.25.94-.41.68-.31c.29-.13.57-.27.85-.42l.74-.38.76-.42.78-.45.69-.44.8-.52.61-.42c.28-.2.56-.4.83-.61l.53-.4.87-.7.41-.36c.32-.27.63-.54.94-.83l.24-.23c.27-.25.54-.5.8-.76A35.08,35.08,0,0,0,74.12,70l.06-.17c.08-.27.15-.55.23-.82s.17-.64.25-1v0a35.07,35.07,0,0,0-.08-17.15c-.11-.4-.22-.8-.34-1.19,0,0,0-.1,0-.15-.14-.45-.28-.89-.43-1.33,0-.12-.08-.25-.13-.38-.14-.39-.28-.77-.43-1.16l-.21-.5c-.14-.35-.29-.7-.44-1s-.18-.4-.28-.59-.3-.62-.45-.93L71.49,43,71,42.12q-.19-.36-.42-.72l-.45-.73c-.17-.26-.33-.52-.51-.77l-.43-.63c-.08-.1-.14-.2-.21-.3L83.72,24.25v23H95V5ZM64.31,61.65c0,.23,0,.46-.07.69-.06.51-.13,1-.22,1.53l-.18.9c-.09.42-.19.83-.31,1.24s-.22.79-.35,1.17-.21.62-.32.92q-.27.7-.57,1.38c-.1.23-.21.45-.32.68-.23.49-.49,1-.76,1.45-.11.19-.22.38-.34.56-.28.47-.59.93-.9,1.38-.15.2-.29.4-.45.6-.3.41-.62.8-1,1.19-.21.24-.42.48-.64.71s-.62.66-1,1-.55.5-.83.75-.62.54-.95.8-.62.46-.93.68-.66.47-1,.69-.67.4-1,.59-.7.4-1.06.58-.71.34-1.07.5-.72.32-1.09.46-.76.28-1.14.4l-1.11.35q-.63.17-1.26.3c-.34.08-.67.15-1,.21s-1,.15-1.42.2l-.85.09c-.51,0-1,.06-1.54.07h-.78c-.5,0-1,0-1.52-.07l-.86-.09c-.45,0-.91-.12-1.35-.2s-.73-.13-1.08-.21l-1.08-.26c-.44-.13-.89-.26-1.33-.41-.25-.09-.51-.17-.76-.27-.52-.19-1-.4-1.52-.62l-.55-.26c-.52-.25-1-.53-1.55-.82l-.48-.28c-.49-.3-1-.62-1.44-1l-.55-.4c-.42-.32-.82-.65-1.22-1L24,77.24c-.34-.31-.67-.63-1-1s-.5-.55-.75-.82-.54-.63-.8-1-.46-.62-.69-.93-.46-.66-.68-1-.41-.67-.6-1-.39-.68-.57-1-.34-.72-.51-1.09-.31-.71-.45-1.07-.28-.78-.41-1.17-.23-.71-.33-1.07-.23-.9-.33-1.36c-.06-.28-.12-.56-.17-.84-.1-.54-.18-1.09-.24-1.64l-.06-.54c-.05-.64-.09-1.28-.09-1.92v-.3a20.15,20.15,0,0,1,.1-2.06,1.5,1.5,0,0,1,0-.22,19.64,19.64,0,0,1,.29-2l.06-.33c.12-.61.27-1.21.44-1.81l.18-.59c.15-.5.33-1,.51-1.48.12-.29.24-.59.37-.88s.34-.77.53-1.15.37-.72.57-1.08.37-.65.57-1,.44-.68.67-1,.5-.69.76-1,.41-.51.62-.76c.34-.41.7-.8,1.07-1.19l.51-.51c.42-.42.86-.81,1.31-1.19l.49-.4c.45-.36.92-.7,1.39-1l.58-.4c.45-.28.9-.55,1.36-.8l.74-.4c.42-.22.86-.41,1.3-.6s.59-.26.89-.37.84-.31,1.26-.44l1-.31A23.65,23.65,0,0,1,44.77,36l.54.11c.5.11,1,.23,1.48.36l.85.26c.37.11.73.24,1.09.38l1,.4c.26.11.51.24.77.36a23.91,23.91,0,0,1,3.9,2.3l.72.52.89.74c.29.25.58.52.87.79s.48.45.71.69.67.73,1,1.1c.16.19.33.37.48.56.46.57.9,1.16,1.3,1.76.09.14.18.3.27.45.31.48.6,1,.87,1.46.12.23.22.45.33.68q.35.66.63,1.35l.29.72c.18.47.34.93.49,1.41l.21.69c.13.47.24.94.34,1.41.07.3.13.61.19.92.09.51.16,1,.22,1.53,0,.24.05.48.07.72,0,.55.07,1.11.08,1.67V60C64.38,60.53,64.35,61.09,64.31,61.65Z" transform="translate(-5 -5)"/></svg>