<svg  viewBox="0 0 373 73" fill="none" xmlns="http://www.w3.org/2000/svg">
<path fill-rule="evenodd" clip-rule="evenodd" d="M6.16869 0.205056C6.16869 0.317837 5.81892 0.410112 5.39164 0.410112C4.85044 0.410112 4.52453 0.534581 4.31808 0.820225C4.15502 1.04579 3.90149 1.23034 3.75488 1.23034C3.38065 1.23034 0.822492 3.82102 0.822492 4.19976C0.822492 4.37118 0.729961 4.51124 0.616869 4.51124C0.503776 4.51124 0.411246 4.69579 0.411246 4.92135C0.411246 5.14691 0.318716 5.33146 0.205623 5.33146C0.0791648 5.33146 0 6.35674 0 7.99719C0 9.63764 0.0791648 10.6629 0.205623 10.6629C0.318716 10.6629 0.411246 10.9194 0.411246 11.2328C0.411246 11.5674 0.58109 11.9246 0.822492 12.0983C1.04868 12.2609 1.23374 12.514 1.23374 12.6606C1.23374 13.034 3.41848 15.1742 3.7995 15.1742C3.97161 15.1742 4.11246 15.2664 4.11246 15.3792C4.11246 15.492 4.29752 15.5843 4.5237 15.5843C4.74989 15.5843 4.93495 15.6765 4.93495 15.7893C4.93495 15.9021 5.21254 15.9944 5.55182 15.9944C5.8911 15.9944 6.16869 16.0867 6.16869 16.1994C6.16869 16.319 6.85403 16.4045 7.81367 16.4045C8.77331 16.4045 9.45865 16.319 9.45865 16.1994C9.45865 16.0867 9.82878 15.9944 10.2811 15.9944C10.7335 15.9944 11.1036 15.9021 11.1036 15.7893C11.1036 15.6765 11.2683 15.5843 11.4694 15.5843C11.6707 15.5843 11.9687 15.3997 12.1318 15.1742C12.2948 14.9486 12.5496 14.764 12.698 14.764C13.0488 14.764 14.3936 13.423 14.3936 13.0732C14.3936 12.9251 14.5787 12.671 14.8049 12.5084C15.031 12.3458 15.2161 12.0487 15.2161 11.8479C15.2161 11.6474 15.3086 11.4831 15.4217 11.4831C15.5348 11.4831 15.6273 11.114 15.6273 10.6629C15.6273 10.2118 15.7199 9.8427 15.833 9.8427C15.9528 9.8427 16.0386 9.15924 16.0386 8.20225C16.0386 7.24525 15.9528 6.5618 15.833 6.5618C15.7199 6.5618 15.6273 6.1927 15.6273 5.74157C15.6273 5.29045 15.5348 4.92135 15.4217 4.92135C15.3086 4.92135 15.2161 4.7571 15.2161 4.55655C15.2161 4.3558 15.031 4.05868 14.8049 3.89607C14.5787 3.73346 14.3936 3.47939 14.3936 3.33134C14.3936 2.98152 13.0488 1.64045 12.698 1.64045C12.5496 1.64045 12.2948 1.4559 12.1318 1.23034C11.9687 1.00478 11.6707 0.820225 11.4694 0.820225C11.2683 0.820225 11.1036 0.727949 11.1036 0.615169C11.1036 0.502388 10.7335 0.410112 10.2811 0.410112C9.82878 0.410112 9.45865 0.317837 9.45865 0.205056C9.45865 0.0855084 8.77331 0 7.81367 0C6.85403 0 6.16869 0.0855084 6.16869 0.205056ZM259.907 0.205056C259.907 0.317837 259.537 0.410112 259.085 0.410112C258.633 0.410112 258.262 0.502388 258.262 0.615169C258.262 0.727949 258.098 0.820225 257.897 0.820225C257.695 0.820225 257.397 1.00478 257.234 1.23034C257.071 1.4559 256.816 1.64045 256.668 1.64045C256.293 1.64045 254.972 2.99279 254.972 3.37666C254.972 3.54952 254.88 3.69101 254.767 3.69101C254.654 3.69101 254.561 3.87556 254.561 4.10112C254.561 4.32669 254.469 4.51124 254.356 4.51124C254.242 4.51124 254.15 4.69579 254.15 4.92135C254.15 5.14691 254.057 5.33146 253.944 5.33146C253.831 5.33146 253.739 5.60829 253.739 5.94663C253.739 6.28497 253.646 6.5618 253.533 6.5618C253.416 6.5618 253.327 7.17697 253.327 7.99719C253.327 8.81742 253.416 9.43258 253.533 9.43258C253.646 9.43258 253.739 9.80169 253.739 10.2528C253.739 10.7039 253.831 11.073 253.944 11.073C254.057 11.073 254.15 11.2576 254.15 11.4831C254.15 11.7087 254.242 11.8933 254.356 11.8933C254.469 11.8933 254.561 12.0333 254.561 12.2047C254.561 12.6101 257.132 15.1742 257.539 15.1742C257.711 15.1742 257.851 15.2664 257.851 15.3792C257.851 15.492 258.036 15.5843 258.262 15.5843C258.489 15.5843 258.674 15.6765 258.674 15.7893C258.674 15.9021 258.951 15.9944 259.291 15.9944C259.63 15.9944 259.907 16.0867 259.907 16.1994C259.907 16.319 260.593 16.4045 261.552 16.4045C262.512 16.4045 263.197 16.319 263.197 16.1994C263.197 16.0867 263.475 15.9944 263.814 15.9944C264.154 15.9944 264.431 15.9021 264.431 15.7893C264.431 15.6765 264.664 15.5843 264.948 15.5843C265.318 15.5843 265.905 15.1459 267.005 14.0496C267.851 13.2056 268.544 12.3751 268.544 12.2041C268.544 12.0331 268.636 11.8933 268.749 11.8933C268.862 11.8933 268.955 11.7087 268.955 11.4831C268.955 11.2576 269.047 11.073 269.16 11.073C269.274 11.073 269.366 10.7039 269.366 10.2528C269.366 9.80169 269.459 9.43258 269.572 9.43258C269.686 9.43258 269.777 8.8857 269.777 8.20225C269.777 7.51879 269.686 6.97191 269.572 6.97191C269.459 6.97191 269.366 6.60281 269.366 6.15169C269.366 5.70056 269.274 5.33146 269.16 5.33146C269.047 5.33146 268.955 5.14691 268.955 4.92135C268.955 4.69579 268.862 4.51124 268.749 4.51124C268.636 4.51124 268.544 4.37118 268.544 4.19976C268.544 3.82102 265.985 1.23034 265.611 1.23034C265.465 1.23034 265.211 1.04579 265.048 0.820225C264.842 0.534581 264.516 0.410112 263.974 0.410112C263.547 0.410112 263.197 0.317837 263.197 0.205056C263.197 0.0855084 262.512 0 261.552 0C260.593 0 259.907 0.0855084 259.907 0.205056ZM50.5832 19.8904C50.5832 20.0032 50.2131 20.0955 49.7607 20.0955C49.3084 20.0955 48.9383 20.1878 48.9383 20.3006C48.9383 20.4133 48.5681 20.5056 48.1158 20.5056C47.6634 20.5056 47.2933 20.5979 47.2933 20.7107C47.2933 20.8235 47.1082 20.9157 46.882 20.9157C46.6558 20.9157 46.4708 21.008 46.4708 21.1208C46.4708 21.2336 46.2857 21.3258 46.0595 21.3258C45.8334 21.3258 45.6483 21.4181 45.6483 21.5309C45.6483 21.6437 45.4632 21.736 45.237 21.736C45.0109 21.736 44.8258 21.8282 44.8258 21.941C44.8258 22.0538 44.6407 22.1461 44.4146 22.1461C44.1884 22.1461 44.0033 22.2383 44.0033 22.3511C44.0033 22.4639 43.8386 22.5562 43.6375 22.5562C43.4362 22.5562 43.1383 22.7407 42.9752 22.9663C42.8121 23.1919 42.5345 23.3764 42.3583 23.3764C42.1821 23.3764 41.9045 23.561 41.7415 23.7865C41.5784 24.0121 41.3175 24.1966 41.1616 24.1966C41.0059 24.1966 40.619 24.4735 40.3021 24.8118C39.9852 25.1501 39.5779 25.427 39.3971 25.427C39.2162 25.427 39.0684 25.5192 39.0684 25.632C39.0684 25.7448 38.9758 25.8371 38.8627 25.8371C38.7371 25.8371 38.6571 24.8801 38.6571 23.3764V20.9157H32.2828H25.9085V46.3427V71.7697H31.989C36.9848 71.7697 38.1221 71.7174 38.3633 71.4766C38.6123 71.2285 38.6571 69.0082 38.6571 56.9177C38.6571 47.5437 38.7276 42.6517 38.8627 42.6517C38.9771 42.6517 39.0684 42.1048 39.0684 41.4213C39.0684 40.7379 39.1597 40.191 39.274 40.191C39.3871 40.191 39.4796 39.9142 39.4796 39.5758C39.4796 39.2375 39.5721 38.9607 39.6852 38.9607C39.7983 38.9607 39.8908 38.7761 39.8908 38.5506C39.8908 38.325 39.9834 38.1404 40.0965 38.1404C40.2096 38.1404 40.3021 37.9559 40.3021 37.7303C40.3021 37.5048 40.3946 37.3202 40.5077 37.3202C40.6208 37.3202 40.7133 37.1357 40.7133 36.9101C40.7133 36.6845 40.8059 36.5 40.919 36.5C41.0321 36.5 41.1246 36.3526 41.1246 36.1721C41.1246 35.9919 41.4022 35.5857 41.7415 35.2697C42.0807 34.9537 42.3583 34.587 42.3583 34.455C42.3583 34.1453 42.8759 33.6292 43.1864 33.6292C43.3188 33.6292 43.6864 33.3524 44.0033 33.014C44.3202 32.6757 44.7275 32.3989 44.9083 32.3989C45.0892 32.3989 45.237 32.3066 45.237 32.1938C45.237 32.081 45.5146 31.9888 45.8539 31.9888C46.1932 31.9888 46.4708 31.8965 46.4708 31.7837C46.4708 31.6709 46.7484 31.5787 47.0877 31.5787C47.4269 31.5787 47.7045 31.4864 47.7045 31.3736C47.7045 31.2506 48.527 31.1685 49.7607 31.1685C50.9945 31.1685 51.817 31.2506 51.817 31.3736C51.817 31.4864 52.0946 31.5787 52.4338 31.5787C52.7731 31.5787 53.0507 31.6709 53.0507 31.7837C53.0507 31.8965 53.2358 31.9888 53.462 31.9888C53.6881 31.9888 53.8732 32.081 53.8732 32.1938C53.8732 32.3066 54.0145 32.3989 54.187 32.3989C54.5951 32.3989 56.3407 34.1396 56.3407 34.5466C56.3407 34.7187 56.4332 34.8596 56.5463 34.8596C56.6594 34.8596 56.7519 35.0441 56.7519 35.2697C56.7519 35.4952 56.8445 35.6798 56.9575 35.6798C57.0706 35.6798 57.1632 35.8643 57.1632 36.0899C57.1632 36.3154 57.2557 36.5 57.3688 36.5C57.4819 36.5 57.5744 36.8691 57.5744 37.3202C57.5744 37.7713 57.667 38.1404 57.78 38.1404C57.8944 38.1404 57.9857 38.6873 57.9857 39.3708C57.9857 40.0542 58.077 40.6011 58.1913 40.6011C58.3266 40.6011 58.3969 45.835 58.3969 55.8924C58.3969 68.8716 58.4413 71.2281 58.6907 71.4766C59.1254 71.9101 70.417 71.9101 70.8517 71.4766C71.1017 71.2275 71.1455 68.5708 71.1455 53.6368C71.1455 42.0755 71.0754 36.0899 70.9399 36.0899C70.82 36.0899 70.7343 35.4064 70.7343 34.4494C70.7343 33.4924 70.6485 32.809 70.5287 32.809C70.4156 32.809 70.323 32.4399 70.323 31.9888C70.323 31.5376 70.2305 31.1685 70.1174 31.1685C70.0043 31.1685 69.9118 30.8917 69.9118 30.5534C69.9118 30.215 69.8193 29.9382 69.7062 29.9382C69.5931 29.9382 69.5006 29.6614 69.5006 29.323C69.5006 28.9847 69.408 28.7079 69.2949 28.7079C69.1818 28.7079 69.0893 28.5436 69.0893 28.3431C69.0893 28.1423 68.9042 27.8452 68.6781 27.6826C68.4519 27.52 68.2668 27.2431 68.2668 27.0674C68.2668 26.8917 68.0818 26.6149 67.8556 26.4522C67.6294 26.2896 67.4443 26.0362 67.4443 25.889C67.4443 25.5619 65.6955 23.7865 65.3733 23.7865C65.246 23.7865 64.8825 23.5097 64.5656 23.1713C64.2487 22.833 63.8618 22.5562 63.7061 22.5562C63.5502 22.5562 63.2893 22.3716 63.1262 22.1461C62.9632 21.9205 62.6652 21.736 62.4639 21.736C62.2628 21.736 62.0981 21.6437 62.0981 21.5309C62.0981 21.4181 61.9131 21.3258 61.6869 21.3258C61.4607 21.3258 61.2756 21.2336 61.2756 21.1208C61.2756 21.008 60.998 20.9157 60.6588 20.9157C60.3195 20.9157 60.0419 20.8235 60.0419 20.7107C60.0419 20.5979 59.7643 20.5056 59.425 20.5056C59.0858 20.5056 58.8082 20.4133 58.8082 20.3006C58.8082 20.1878 58.3455 20.0955 57.78 20.0955C57.2146 20.0955 56.7519 20.0032 56.7519 19.8904C56.7519 19.7629 55.5867 19.6854 53.6676 19.6854C51.7485 19.6854 50.5832 19.7629 50.5832 19.8904ZM157.096 19.8904C157.096 20.0032 156.633 20.0955 156.068 20.0955C155.502 20.0955 155.04 20.1878 155.04 20.3006C155.04 20.4133 154.67 20.5056 154.217 20.5056C153.765 20.5056 153.395 20.5979 153.395 20.7107C153.395 20.8235 153.117 20.9157 152.778 20.9157C152.439 20.9157 152.161 21.008 152.161 21.1208C152.161 21.2336 151.883 21.3258 151.544 21.3258C151.205 21.3258 150.927 21.4181 150.927 21.5309C150.927 21.6437 150.742 21.736 150.516 21.736C150.29 21.736 150.105 21.8282 150.105 21.941C150.105 22.0538 149.92 22.1461 149.693 22.1461C149.467 22.1461 149.282 22.2383 149.282 22.3511C149.282 22.4639 149.097 22.5562 148.871 22.5562C148.645 22.5562 148.46 22.6485 148.46 22.7612C148.46 22.874 148.295 22.9663 148.094 22.9663C147.893 22.9663 147.595 23.1508 147.432 23.3764C147.269 23.602 146.991 23.7865 146.815 23.7865C146.639 23.7865 146.361 23.9711 146.198 24.1966C146.035 24.4222 145.782 24.6067 145.636 24.6067C145.314 24.6067 140.235 29.6368 140.235 29.9565C140.235 30.0815 139.957 30.4424 139.618 30.7584C139.279 31.0744 139.001 31.4806 139.001 31.6609C139.001 31.8413 138.909 31.9888 138.795 31.9888C138.682 31.9888 138.59 32.1733 138.59 32.3989C138.59 32.6244 138.497 32.809 138.384 32.809C138.271 32.809 138.179 32.9935 138.179 33.2191C138.179 33.4447 138.086 33.6292 137.973 33.6292C137.86 33.6292 137.767 33.8138 137.767 34.0393C137.767 34.2649 137.675 34.4494 137.562 34.4494C137.449 34.4494 137.356 34.634 137.356 34.8596C137.356 35.0851 137.264 35.2697 137.15 35.2697C137.037 35.2697 136.945 35.4542 136.945 35.6798C136.945 35.9053 136.852 36.0899 136.739 36.0899C136.626 36.0899 136.534 36.3667 136.534 36.7051C136.534 37.0434 136.441 37.3202 136.328 37.3202C136.215 37.3202 136.122 37.5971 136.122 37.9354C136.122 38.2737 136.03 38.5506 135.917 38.5506C135.804 38.5506 135.711 39.0119 135.711 39.5758C135.711 40.1397 135.619 40.6011 135.506 40.6011C135.388 40.6011 135.3 41.2163 135.3 42.0365C135.3 42.8567 135.212 43.4719 135.094 43.4719C134.966 43.4719 134.889 44.634 134.889 46.5478C134.889 48.4615 134.966 49.6236 135.094 49.6236C135.209 49.6236 135.3 50.1705 135.3 50.8539C135.3 51.5374 135.391 52.0843 135.506 52.0843C135.619 52.0843 135.711 52.5456 135.711 53.1095C135.711 53.6735 135.804 54.1348 135.917 54.1348C136.03 54.1348 136.122 54.4117 136.122 54.75C136.122 55.0883 136.215 55.3652 136.328 55.3652C136.441 55.3652 136.534 55.642 136.534 55.9803C136.534 56.3187 136.626 56.5955 136.739 56.5955C136.852 56.5955 136.945 56.8723 136.945 57.2107C136.945 57.549 137.037 57.8258 137.15 57.8258C137.264 57.8258 137.356 58.0104 137.356 58.236C137.356 58.4615 137.449 58.6461 137.562 58.6461C137.675 58.6461 137.767 58.8103 137.767 59.0109C137.767 59.2116 137.952 59.5087 138.179 59.6713C138.405 59.834 138.59 60.1311 138.59 60.3318C138.59 60.5324 138.682 60.6966 138.795 60.6966C138.909 60.6966 139.001 60.8609 139.001 61.0614C139.001 61.2622 139.186 61.5593 139.412 61.7219C139.639 61.8845 139.824 62.1365 139.824 62.2819C139.824 62.6039 144.868 67.6685 145.188 67.6685C145.314 67.6685 145.675 67.9454 145.992 68.2837C146.309 68.622 146.716 68.8989 146.897 68.8989C147.078 68.8989 147.226 68.9911 147.226 69.1039C147.226 69.2167 147.411 69.309 147.637 69.309C147.863 69.309 148.049 69.4013 148.049 69.514C148.049 69.6268 148.234 69.7191 148.46 69.7191C148.686 69.7191 148.871 69.8114 148.871 69.9242C148.871 70.0369 149.056 70.1292 149.282 70.1292C149.508 70.1292 149.693 70.2215 149.693 70.3343C149.693 70.447 149.879 70.5393 150.105 70.5393C150.331 70.5393 150.516 70.6316 150.516 70.7444C150.516 70.8572 150.701 70.9494 150.927 70.9494C151.153 70.9494 151.338 71.0417 151.338 71.1545C151.338 71.2673 151.709 71.3595 152.161 71.3595C152.613 71.3595 152.983 71.4518 152.983 71.5646C152.983 71.6774 153.261 71.7697 153.6 71.7697C153.94 71.7697 154.217 71.8619 154.217 71.9747C154.217 72.0875 154.68 72.1798 155.245 72.1798C155.811 72.1798 156.273 72.2721 156.273 72.3848C156.273 72.5064 157.027 72.5899 158.124 72.5899C159.221 72.5899 159.975 72.6733 159.975 72.7949C159.975 72.918 160.797 73 162.031 73C163.265 73 164.087 72.918 164.087 72.7949C164.087 72.6733 164.841 72.5899 165.938 72.5899C167.034 72.5899 167.788 72.5064 167.788 72.3848C167.788 72.2708 168.337 72.1798 169.022 72.1798C169.707 72.1798 170.256 72.0887 170.256 71.9747C170.256 71.8619 170.533 71.7697 170.873 71.7697C171.212 71.7697 171.49 71.6774 171.49 71.5646C171.49 71.4518 171.767 71.3595 172.106 71.3595C172.446 71.3595 172.723 71.2673 172.723 71.1545C172.723 71.0417 173.001 70.9494 173.34 70.9494C173.679 70.9494 173.957 70.8572 173.957 70.7444C173.957 70.6316 174.142 70.5393 174.368 70.5393C174.594 70.5393 174.779 70.447 174.779 70.3343C174.779 70.2215 174.965 70.1292 175.191 70.1292C175.417 70.1292 175.602 70.0369 175.602 69.9242C175.602 69.8114 175.787 69.7191 176.013 69.7191C176.239 69.7191 176.424 69.6268 176.424 69.514C176.424 69.4013 176.589 69.309 176.79 69.309C176.992 69.309 177.29 69.1244 177.453 68.8989C177.616 68.6733 177.877 68.4888 178.032 68.4888C178.188 68.4888 178.575 68.2119 178.892 67.8736C179.209 67.5353 179.571 67.2584 179.697 67.2584C179.996 67.2584 183.416 63.8479 183.416 63.55C183.416 63.4245 183.693 63.0632 184.033 62.7472C184.746 62.0828 184.84 61.5169 184.238 61.5169C184.012 61.5169 183.827 61.4246 183.827 61.3118C183.827 61.199 183.642 61.1067 183.416 61.1067C183.189 61.1067 183.004 61.0145 183.004 60.9017C183.004 60.7889 182.819 60.6966 182.593 60.6966C182.367 60.6966 182.182 60.6044 182.182 60.4916C182.182 60.3788 181.904 60.2865 181.565 60.2865C181.226 60.2865 180.948 60.1942 180.948 60.0815C180.948 59.9687 180.763 59.8764 180.537 59.8764C180.311 59.8764 180.126 59.7841 180.126 59.6713C180.126 59.5586 179.941 59.4663 179.714 59.4663C179.488 59.4663 179.303 59.374 179.303 59.2612C179.303 59.1485 179.118 59.0562 178.892 59.0562C178.666 59.0562 178.481 58.9639 178.481 58.8511C178.481 58.7383 178.296 58.6461 178.069 58.6461C177.843 58.6461 177.658 58.5538 177.658 58.441C177.658 58.3282 177.473 58.236 177.247 58.236C177.021 58.236 176.836 58.1437 176.836 58.0309C176.836 57.9181 176.651 57.8258 176.424 57.8258C176.198 57.8258 176.013 57.7336 176.013 57.6208C176.013 57.508 175.828 57.4157 175.602 57.4157C175.376 57.4157 175.191 57.3235 175.191 57.2107C175.191 57.0979 174.86 57.0056 174.455 57.0056C173.865 57.0056 173.562 57.1686 172.929 57.8258C172.494 58.277 172.013 58.6461 171.859 58.6461C171.706 58.6461 171.447 58.8306 171.284 59.0562C171.121 59.2817 170.823 59.4663 170.622 59.4663C170.42 59.4663 170.256 59.5586 170.256 59.6713C170.256 59.7841 170.071 59.8764 169.845 59.8764C169.618 59.8764 169.433 59.9687 169.433 60.0815C169.433 60.1942 169.248 60.2865 169.022 60.2865C168.796 60.2865 168.611 60.3788 168.611 60.4916C168.611 60.6044 168.333 60.6966 167.994 60.6966C167.655 60.6966 167.377 60.7889 167.377 60.9017C167.377 61.0145 167.099 61.1067 166.76 61.1067C166.421 61.1067 166.143 61.199 166.143 61.3118C166.143 61.4258 165.595 61.5169 164.91 61.5169C164.224 61.5169 163.676 61.6079 163.676 61.7219C163.676 61.8435 162.922 61.927 161.825 61.927C160.729 61.927 159.975 61.8435 159.975 61.7219C159.975 61.6079 159.426 61.5169 158.741 61.5169C158.056 61.5169 157.507 61.4258 157.507 61.3118C157.507 61.199 157.137 61.1067 156.685 61.1067C156.232 61.1067 155.862 61.0145 155.862 60.9017C155.862 60.7889 155.677 60.6966 155.451 60.6966C155.225 60.6966 155.04 60.6044 155.04 60.4916C155.04 60.3788 154.855 60.2865 154.628 60.2865C154.402 60.2865 154.217 60.1942 154.217 60.0815C154.217 59.9687 154.052 59.8764 153.851 59.8764C153.65 59.8764 153.352 59.6919 153.189 59.4663C153.026 59.2407 152.772 59.0562 152.625 59.0562C152.299 59.0562 150.105 56.9006 150.105 56.5797C150.105 56.4534 149.827 56.0913 149.488 55.7753C149.149 55.4593 148.871 55.0531 148.871 54.8728C148.871 54.6924 148.778 54.5449 148.665 54.5449C148.552 54.5449 148.46 54.3604 148.46 54.1348C148.46 53.9093 148.367 53.7247 148.254 53.7247C148.141 53.7247 148.049 53.4479 148.049 53.1095C148.049 52.7712 147.956 52.4944 147.843 52.4944C147.73 52.4944 147.637 52.1253 147.637 51.6742C147.637 51.223 147.545 50.8539 147.432 50.8539C147.319 50.8539 147.226 50.5771 147.226 50.2388V49.6236H167.788H188.351V46.5478C188.351 44.634 188.273 43.4719 188.145 43.4719C188.031 43.4719 187.939 42.925 187.939 42.2416C187.939 41.5581 187.848 41.0112 187.734 41.0112C187.621 41.0112 187.528 40.5499 187.528 39.986C187.528 39.4221 187.436 38.9607 187.322 38.9607C187.209 38.9607 187.117 38.6838 187.117 38.3455C187.117 38.0072 187.024 37.7303 186.911 37.7303C186.798 37.7303 186.706 37.3612 186.706 36.9101C186.706 36.459 186.613 36.0899 186.5 36.0899C186.387 36.0899 186.294 35.9053 186.294 35.6798C186.294 35.4542 186.202 35.2697 186.089 35.2697C185.976 35.2697 185.883 35.0851 185.883 34.8596C185.883 34.634 185.791 34.4494 185.678 34.4494C185.564 34.4494 185.472 34.2649 185.472 34.0393C185.472 33.8138 185.379 33.6292 185.266 33.6292C185.153 33.6292 185.061 33.4447 185.061 33.2191C185.061 32.9935 184.968 32.809 184.855 32.809C184.742 32.809 184.649 32.6244 184.649 32.3989C184.649 32.1733 184.557 31.9888 184.444 31.9888C184.331 31.9888 184.238 31.8245 184.238 31.624C184.238 31.4232 184.053 31.1261 183.827 30.9635C183.601 30.8009 183.416 30.5427 183.416 30.3895C183.416 30.2364 183.046 29.7565 182.593 29.323C182.141 28.8895 181.771 28.4331 181.771 28.3084C181.771 28.0135 179.999 26.2472 179.704 26.2472C179.579 26.2472 179.121 25.8781 178.686 25.427C178.252 24.9758 177.77 24.6067 177.617 24.6067C177.463 24.6067 177.204 24.4222 177.041 24.1966C176.878 23.9711 176.601 23.7865 176.424 23.7865C176.248 23.7865 175.971 23.602 175.808 23.3764C175.645 23.1508 175.347 22.9663 175.145 22.9663C174.944 22.9663 174.779 22.874 174.779 22.7612C174.779 22.6485 174.594 22.5562 174.368 22.5562C174.142 22.5562 173.957 22.4639 173.957 22.3511C173.957 22.2383 173.772 22.1461 173.546 22.1461C173.32 22.1461 173.135 22.0538 173.135 21.941C173.135 21.8282 172.857 21.736 172.518 21.736C172.178 21.736 171.901 21.6437 171.901 21.5309C171.901 21.4181 171.716 21.3258 171.49 21.3258C171.263 21.3258 171.078 21.2336 171.078 21.1208C171.078 21.008 170.708 20.9157 170.256 20.9157C169.803 20.9157 169.433 20.8235 169.433 20.7107C169.433 20.5979 169.063 20.5056 168.611 20.5056C168.158 20.5056 167.788 20.4133 167.788 20.3006C167.788 20.1866 167.24 20.0955 166.555 20.0955C165.869 20.0955 165.321 20.0045 165.321 19.8904C165.321 19.7606 163.813 19.6854 161.208 19.6854C158.604 19.6854 157.096 19.7606 157.096 19.8904ZM223.718 19.8904C223.718 20.0032 223.255 20.0955 222.69 20.0955C222.124 20.0955 221.662 20.1878 221.662 20.3006C221.662 20.4133 221.384 20.5056 221.045 20.5056C220.705 20.5056 220.428 20.5979 220.428 20.7107C220.428 20.8235 220.15 20.9157 219.811 20.9157C219.472 20.9157 219.194 21.008 219.194 21.1208C219.194 21.2336 219.009 21.3258 218.783 21.3258C218.557 21.3258 218.372 21.4181 218.372 21.5309C218.372 21.6437 218.186 21.736 217.96 21.736C217.734 21.736 217.549 21.8282 217.549 21.941C217.549 22.0538 217.384 22.1461 217.183 22.1461C216.982 22.1461 216.684 22.3306 216.521 22.5562C216.358 22.7817 216.08 22.9663 215.904 22.9663C215.728 22.9663 215.45 23.1508 215.287 23.3764C215.124 23.602 214.847 23.7865 214.67 23.7865C214.494 23.7865 214.217 23.9711 214.053 24.1966C213.89 24.4222 213.629 24.6067 213.474 24.6067C213.318 24.6067 212.931 24.8836 212.614 25.2219C211.535 26.3741 211.38 26.1428 211.38 23.3764V20.9157H205.212H199.043V46.3427V71.7697H205.212H211.38V59.0562C211.38 50.7172 211.451 46.3427 211.586 46.3427C211.712 46.3427 211.792 45.3857 211.792 43.882C211.792 42.3783 211.872 41.4213 211.997 41.4213C212.11 41.4213 212.203 41.0522 212.203 40.6011C212.203 40.15 212.295 39.7809 212.408 39.7809C212.522 39.7809 212.614 39.5041 212.614 39.1657C212.614 38.8274 212.707 38.5506 212.82 38.5506C212.933 38.5506 213.025 38.366 213.025 38.1404C213.025 37.9149 213.118 37.7303 213.231 37.7303C213.344 37.7303 213.437 37.5458 213.437 37.3202C213.437 37.0947 213.529 36.9101 213.642 36.9101C213.755 36.9101 213.848 36.7459 213.848 36.5453C213.848 36.3446 214.033 36.0474 214.259 35.8848C214.485 35.7222 214.67 35.4692 214.67 35.3226C214.67 34.9492 216.855 32.809 217.236 32.809C217.408 32.809 217.549 32.7167 217.549 32.6039C217.549 32.4912 217.734 32.3989 217.96 32.3989C218.186 32.3989 218.372 32.3066 218.372 32.1938C218.372 32.081 218.557 31.9888 218.783 31.9888C219.009 31.9888 219.194 31.8965 219.194 31.7837C219.194 31.6709 219.564 31.5787 220.017 31.5787C220.469 31.5787 220.839 31.4864 220.839 31.3736C220.839 31.252 221.593 31.1685 222.69 31.1685C223.786 31.1685 224.54 31.252 224.54 31.3736C224.54 31.4864 224.818 31.5787 225.157 31.5787C225.496 31.5787 225.774 31.6709 225.774 31.7837C225.774 31.8965 226.007 31.9888 226.292 31.9888C226.655 31.9888 227.208 32.3862 228.143 33.3177C228.875 34.0488 229.475 34.7667 229.475 34.9131C229.475 35.0593 229.66 35.3121 229.886 35.4747C230.128 35.6484 230.298 36.0056 230.298 36.3403C230.298 36.6536 230.39 36.9101 230.503 36.9101C230.616 36.9101 230.709 37.3715 230.709 37.9354C230.709 38.4993 230.801 38.9607 230.915 38.9607C231.04 38.9607 231.12 39.9177 231.12 41.4213C231.12 42.925 231.2 43.882 231.326 43.882C231.461 43.882 231.531 48.6666 231.531 57.8258V71.7697H237.7H243.869V52.9045C243.869 40.4643 243.799 34.0393 243.663 34.0393C243.549 34.0393 243.458 33.4924 243.458 32.809C243.458 32.1255 243.366 31.5787 243.252 31.5787C243.139 31.5787 243.046 31.3018 243.046 30.9635C243.046 30.6251 242.954 30.3483 242.841 30.3483C242.728 30.3483 242.635 30.0715 242.635 29.7331C242.635 29.3948 242.543 29.118 242.429 29.118C242.316 29.118 242.224 28.9334 242.224 28.7079C242.224 28.4823 242.131 28.2978 242.018 28.2978C241.905 28.2978 241.813 28.1335 241.813 27.933C241.813 27.7322 241.628 27.4351 241.401 27.2725C241.175 27.1099 240.99 26.8574 240.99 26.7116C240.99 26.3657 237.581 22.9663 237.234 22.9663C237.088 22.9663 236.835 22.7817 236.672 22.5562C236.509 22.3306 236.211 22.1461 236.01 22.1461C235.809 22.1461 235.644 22.0538 235.644 21.941C235.644 21.8282 235.459 21.736 235.233 21.736C235.006 21.736 234.821 21.6437 234.821 21.5309C234.821 21.4181 234.636 21.3258 234.41 21.3258C234.184 21.3258 233.999 21.2336 233.999 21.1208C233.999 21.008 233.814 20.9157 233.588 20.9157C233.361 20.9157 233.176 20.8235 233.176 20.7107C233.176 20.5979 232.806 20.5056 232.354 20.5056C231.902 20.5056 231.531 20.4133 231.531 20.3006C231.531 20.1878 231.161 20.0955 230.709 20.0955C230.257 20.0955 229.886 20.0032 229.886 19.8904C229.886 19.7629 228.721 19.6854 226.802 19.6854C224.883 19.6854 223.718 19.7629 223.718 19.8904ZM299.387 19.8904C299.387 20.0032 298.924 20.0955 298.359 20.0955C297.793 20.0955 297.331 20.1878 297.331 20.3006C297.331 20.4133 296.961 20.5056 296.508 20.5056C296.056 20.5056 295.686 20.5979 295.686 20.7107C295.686 20.8235 295.408 20.9157 295.069 20.9157C294.73 20.9157 294.452 21.008 294.452 21.1208C294.452 21.2336 294.174 21.3258 293.835 21.3258C293.496 21.3258 293.218 21.4181 293.218 21.5309C293.218 21.6437 293.033 21.736 292.807 21.736C292.581 21.736 292.396 21.8282 292.396 21.941C292.396 22.0538 292.211 22.1461 291.985 22.1461C291.758 22.1461 291.573 22.2383 291.573 22.3511C291.573 22.4639 291.388 22.5562 291.162 22.5562C290.936 22.5562 290.751 22.6485 290.751 22.7612C290.751 22.874 290.566 22.9663 290.34 22.9663C290.113 22.9663 289.928 23.0586 289.928 23.1713C289.928 23.2841 289.764 23.3764 289.563 23.3764C289.361 23.3764 289.063 23.561 288.9 23.7865C288.737 24.0121 288.478 24.1966 288.325 24.1966C288.171 24.1966 287.69 24.5657 287.255 25.0169C286.821 25.468 286.363 25.8371 286.239 25.8371C285.943 25.8371 283.348 28.4282 283.348 28.7243C283.348 28.8504 283.071 29.2121 282.732 29.5281C282.392 29.8441 282.115 30.23 282.115 30.3852C282.115 30.5407 281.93 30.8009 281.703 30.9635C281.477 31.1261 281.292 31.4029 281.292 31.5787C281.292 31.7544 281.107 32.0312 280.881 32.1938C280.655 32.3564 280.47 32.6536 280.47 32.8543C280.47 33.0548 280.377 33.2191 280.264 33.2191C280.151 33.2191 280.058 33.4037 280.058 33.6292C280.058 33.8548 279.966 34.0393 279.853 34.0393C279.74 34.0393 279.647 34.2239 279.647 34.4494C279.647 34.675 279.555 34.8596 279.442 34.8596C279.328 34.8596 279.236 35.1364 279.236 35.4747C279.236 35.8131 279.143 36.0899 279.03 36.0899C278.917 36.0899 278.825 36.2744 278.825 36.5C278.825 36.7256 278.732 36.9101 278.619 36.9101C278.506 36.9101 278.413 37.2792 278.413 37.7303C278.413 38.1815 278.321 38.5506 278.208 38.5506C278.095 38.5506 278.002 38.9197 278.002 39.3708C278.002 39.8219 277.91 40.191 277.797 40.191C277.682 40.191 277.591 40.7379 277.591 41.4213C277.591 42.1048 277.5 42.6517 277.385 42.6517C277.255 42.6517 277.18 44.0871 277.18 46.5478C277.18 49.0084 277.255 50.4438 277.385 50.4438C277.5 50.4438 277.591 50.9907 277.591 51.6742C277.591 52.3576 277.682 52.9045 277.797 52.9045C277.91 52.9045 278.002 53.2736 278.002 53.7247C278.002 54.1758 278.095 54.5449 278.208 54.5449C278.321 54.5449 278.413 54.8218 278.413 55.1601C278.413 55.4985 278.506 55.7753 278.619 55.7753C278.732 55.7753 278.825 56.0521 278.825 56.3905C278.825 56.7288 278.917 57.0056 279.03 57.0056C279.143 57.0056 279.236 57.1902 279.236 57.4157C279.236 57.6413 279.328 57.8258 279.442 57.8258C279.555 57.8258 279.647 58.0104 279.647 58.236C279.647 58.4615 279.74 58.6461 279.853 58.6461C279.966 58.6461 280.058 58.8306 280.058 59.0562C280.058 59.2817 280.151 59.4663 280.264 59.4663C280.377 59.4663 280.47 59.6508 280.47 59.8764C280.47 60.102 280.562 60.2865 280.675 60.2865C280.788 60.2865 280.881 60.4508 280.881 60.6513C280.881 60.8521 281.066 61.1492 281.292 61.3118C281.518 61.4744 281.703 61.7326 281.703 61.8858C281.703 62.0389 282.074 62.5188 282.526 62.9522C282.978 63.3857 283.348 63.8418 283.348 63.9658C283.348 64.2599 285.533 66.4382 285.828 66.4382C285.952 66.4382 286.409 66.8073 286.844 67.2584C287.279 67.7095 287.76 68.0786 287.913 68.0786C288.067 68.0786 288.326 68.2632 288.489 68.4888C288.652 68.7143 288.93 68.8989 289.106 68.8989C289.282 68.8989 289.56 69.0834 289.723 69.309C289.886 69.5345 290.184 69.7191 290.385 69.7191C290.586 69.7191 290.751 69.8114 290.751 69.9242C290.751 70.0369 290.936 70.1292 291.162 70.1292C291.388 70.1292 291.573 70.2215 291.573 70.3343C291.573 70.447 291.851 70.5393 292.19 70.5393C292.529 70.5393 292.807 70.6316 292.807 70.7444C292.807 70.8572 292.992 70.9494 293.218 70.9494C293.444 70.9494 293.63 71.0417 293.63 71.1545C293.63 71.2673 293.907 71.3595 294.246 71.3595C294.586 71.3595 294.863 71.4518 294.863 71.5646C294.863 71.6774 295.233 71.7697 295.686 71.7697C296.138 71.7697 296.508 71.8619 296.508 71.9747C296.508 72.0875 296.878 72.1798 297.331 72.1798C297.783 72.1798 298.153 72.2721 298.153 72.3848C298.153 72.5064 298.907 72.5899 300.004 72.5899C301.1 72.5899 301.854 72.6733 301.854 72.7949C301.854 72.9192 302.745 73 304.116 73C305.487 73 306.378 72.9192 306.378 72.7949C306.378 72.6733 307.132 72.5899 308.229 72.5899C309.325 72.5899 310.079 72.5064 310.079 72.3848C310.079 72.2721 310.542 72.1798 311.107 72.1798C311.673 72.1798 312.136 72.0875 312.136 71.9747C312.136 71.8619 312.506 71.7697 312.958 71.7697C313.41 71.7697 313.781 71.6774 313.781 71.5646C313.781 71.4518 314.058 71.3595 314.397 71.3595C314.737 71.3595 315.014 71.2673 315.014 71.1545C315.014 71.0417 315.199 70.9494 315.426 70.9494C315.652 70.9494 315.837 70.8572 315.837 70.7444C315.837 70.6316 316.114 70.5393 316.454 70.5393C316.793 70.5393 317.071 70.447 317.071 70.3343C317.071 70.2215 317.256 70.1292 317.482 70.1292C317.708 70.1292 317.893 70.0369 317.893 69.9242C317.893 69.8114 318.058 69.7191 318.259 69.7191C318.46 69.7191 318.758 69.5345 318.921 69.309C319.084 69.0834 319.362 68.8989 319.538 68.8989C319.714 68.8989 319.992 68.7143 320.155 68.4888C320.318 68.2632 320.577 68.0786 320.73 68.0786C320.884 68.0786 321.365 67.7095 321.8 67.2584C322.235 66.8073 322.692 66.4382 322.817 66.4382C323.113 66.4382 324.884 64.6718 324.884 64.377C324.884 64.2523 325.254 63.7958 325.707 63.3624C326.87 62.2475 326.722 61.1067 325.413 61.1067C325.122 61.1067 324.884 61.0145 324.884 60.9017C324.884 60.7889 324.699 60.6966 324.473 60.6966C324.247 60.6966 324.062 60.6044 324.062 60.4916C324.062 60.3788 323.877 60.2865 323.651 60.2865C323.424 60.2865 323.239 60.1942 323.239 60.0815C323.239 59.9687 323.054 59.8764 322.828 59.8764C322.602 59.8764 322.417 59.7841 322.417 59.6713C322.417 59.5586 322.232 59.4663 322.006 59.4663C321.779 59.4663 321.594 59.374 321.594 59.2612C321.594 59.1485 321.409 59.0562 321.183 59.0562C320.957 59.0562 320.772 58.9639 320.772 58.8511C320.772 58.7383 320.587 58.6461 320.361 58.6461C320.134 58.6461 319.949 58.5538 319.949 58.441C319.949 58.3282 319.764 58.236 319.538 58.236C319.312 58.236 319.127 58.1437 319.127 58.0309C319.127 57.9181 318.849 57.8258 318.51 57.8258C318.171 57.8258 317.893 57.7336 317.893 57.6208C317.893 57.508 317.708 57.4157 317.482 57.4157C317.256 57.4157 317.071 57.3235 317.071 57.2107C317.071 56.7546 315.983 57.0257 315.426 57.6208C315.109 57.9591 314.739 58.236 314.603 58.236C314.468 58.236 314.097 58.5128 313.781 58.8511C313.464 59.1895 313.056 59.4663 312.876 59.4663C312.695 59.4663 312.547 59.5586 312.547 59.6713C312.547 59.7841 312.362 59.8764 312.136 59.8764C311.909 59.8764 311.724 59.9687 311.724 60.0815C311.724 60.1942 311.539 60.2865 311.313 60.2865C311.087 60.2865 310.902 60.3788 310.902 60.4916C310.902 60.6044 310.624 60.6966 310.285 60.6966C309.946 60.6966 309.668 60.7889 309.668 60.9017C309.668 61.0145 309.391 61.1067 309.051 61.1067C308.712 61.1067 308.434 61.199 308.434 61.3118C308.434 61.4258 307.886 61.5169 307.201 61.5169C306.515 61.5169 305.967 61.6079 305.967 61.7219C305.967 61.8449 305.144 61.927 303.911 61.927C302.677 61.927 301.854 61.8449 301.854 61.7219C301.854 61.6091 301.392 61.5169 300.826 61.5169C300.261 61.5169 299.798 61.4246 299.798 61.3118C299.798 61.199 299.428 61.1067 298.976 61.1067C298.523 61.1067 298.153 61.0145 298.153 60.9017C298.153 60.7889 297.968 60.6966 297.742 60.6966C297.516 60.6966 297.331 60.6044 297.331 60.4916C297.331 60.3788 297.146 60.2865 296.92 60.2865C296.693 60.2865 296.508 60.1942 296.508 60.0815C296.508 59.9687 296.344 59.8764 296.142 59.8764C295.941 59.8764 295.643 59.6919 295.48 59.4663C295.317 59.2407 295.064 59.0562 294.917 59.0562C294.569 59.0562 291.985 56.4786 291.985 56.1319C291.985 55.9857 291.799 55.7328 291.573 55.5702C291.347 55.4076 291.162 55.1105 291.162 54.9097C291.162 54.7092 291.07 54.5449 290.956 54.5449C290.843 54.5449 290.751 54.3604 290.751 54.1348C290.751 53.9093 290.658 53.7247 290.545 53.7247C290.432 53.7247 290.34 53.5402 290.34 53.3146C290.34 53.089 290.247 52.9045 290.134 52.9045C290.021 52.9045 289.928 52.5354 289.928 52.0843C289.928 51.6331 289.836 51.264 289.723 51.264C289.61 51.264 289.517 50.8949 289.517 50.4438V49.6236H310.079H330.642V47.573C330.642 46.3427 330.559 45.5225 330.436 45.5225C330.313 45.5225 330.23 44.7022 330.23 43.4719C330.23 42.2416 330.148 41.4213 330.025 41.4213C329.912 41.4213 329.819 40.96 329.819 40.3961C329.819 39.8322 329.727 39.3708 329.614 39.3708C329.5 39.3708 329.408 39.0017 329.408 38.5506C329.408 38.0994 329.315 37.7303 329.202 37.7303C329.089 37.7303 328.997 37.4535 328.997 37.1152C328.997 36.7768 328.904 36.5 328.791 36.5C328.678 36.5 328.585 36.3154 328.585 36.0899C328.585 35.8643 328.493 35.6798 328.38 35.6798C328.267 35.6798 328.174 35.403 328.174 35.0646C328.174 34.7263 328.082 34.4494 327.969 34.4494C327.855 34.4494 327.763 34.2649 327.763 34.0393C327.763 33.8138 327.67 33.6292 327.557 33.6292C327.444 33.6292 327.352 33.4447 327.352 33.2191C327.352 32.9935 327.259 32.809 327.146 32.809C327.033 32.809 326.94 32.6447 326.94 32.4442C326.94 32.2434 326.755 31.9463 326.529 31.7837C326.303 31.6211 326.118 31.3443 326.118 31.1685C326.118 30.9928 325.933 30.716 325.707 30.5534C325.481 30.3908 325.295 30.1387 325.295 29.9934C325.295 29.6485 320.24 24.6067 319.894 24.6067C319.748 24.6067 319.495 24.4222 319.332 24.1966C319.169 23.9711 318.892 23.7865 318.716 23.7865C318.539 23.7865 318.262 23.602 318.099 23.3764C317.936 23.1508 317.638 22.9663 317.436 22.9663C317.235 22.9663 317.071 22.874 317.071 22.7612C317.071 22.6485 316.886 22.5562 316.659 22.5562C316.433 22.5562 316.248 22.4639 316.248 22.3511C316.248 22.2383 316.063 22.1461 315.837 22.1461C315.611 22.1461 315.426 22.0538 315.426 21.941C315.426 21.8282 315.148 21.736 314.809 21.736C314.469 21.736 314.192 21.6437 314.192 21.5309C314.192 21.4181 313.914 21.3258 313.575 21.3258C313.236 21.3258 312.958 21.2336 312.958 21.1208C312.958 21.008 312.681 20.9157 312.341 20.9157C312.002 20.9157 311.724 20.8235 311.724 20.7107C311.724 20.5979 311.354 20.5056 310.902 20.5056C310.449 20.5056 310.079 20.4133 310.079 20.3006C310.079 20.1866 309.531 20.0955 308.846 20.0955C308.16 20.0955 307.612 20.0045 307.612 19.8904C307.612 19.7606 306.104 19.6854 303.499 19.6854C300.895 19.6854 299.387 19.7606 299.387 19.8904ZM352.026 19.8904C352.026 20.0032 351.656 20.0955 351.204 20.0955C350.752 20.0955 350.381 20.1878 350.381 20.3006C350.381 20.4133 350.011 20.5056 349.559 20.5056C349.107 20.5056 348.736 20.5979 348.736 20.7107C348.736 20.8235 348.551 20.9157 348.325 20.9157C348.099 20.9157 347.914 21.008 347.914 21.1208C347.914 21.2336 347.729 21.3258 347.503 21.3258C347.277 21.3258 347.092 21.4181 347.092 21.5309C347.092 21.6437 346.906 21.736 346.68 21.736C346.454 21.736 346.269 21.8282 346.269 21.941C346.269 22.0538 346.121 22.1461 345.94 22.1461C345.759 22.1461 345.352 22.4229 345.035 22.7612C344.718 23.0996 344.355 23.3764 344.229 23.3764C343.907 23.3764 341.745 25.5641 341.745 25.89C341.745 26.0366 341.56 26.2896 341.334 26.4522C341.108 26.6149 340.923 26.912 340.923 27.1127C340.923 27.3133 340.83 27.4775 340.717 27.4775C340.604 27.4775 340.512 27.6621 340.512 27.8876C340.512 28.1132 340.419 28.2978 340.306 28.2978C340.193 28.2978 340.1 28.4823 340.1 28.7079C340.1 28.9334 340.008 29.118 339.895 29.118C339.782 29.118 339.689 29.3948 339.689 29.7331C339.689 30.0715 339.597 30.3483 339.483 30.3483C339.37 30.3483 339.278 30.8097 339.278 31.3736C339.278 31.9375 339.185 32.3989 339.072 32.3989C338.95 32.3989 338.867 33.1508 338.867 34.2444C338.867 35.3379 338.95 36.0899 339.072 36.0899C339.185 36.0899 339.278 36.459 339.278 36.9101C339.278 37.3612 339.37 37.7303 339.483 37.7303C339.597 37.7303 339.689 38.0072 339.689 38.3455C339.689 38.6838 339.782 38.9607 339.895 38.9607C340.008 38.9607 340.1 39.1452 340.1 39.3708C340.1 39.5963 340.193 39.7809 340.306 39.7809C340.419 39.7809 340.512 39.9655 340.512 40.191C340.512 40.4166 340.604 40.6011 340.717 40.6011C340.83 40.6011 340.923 40.7654 340.923 40.9659C340.923 41.1667 341.108 41.4638 341.334 41.6264C341.56 41.789 341.745 42.0414 341.745 42.1872C341.745 42.5106 345.143 45.9326 345.464 45.9326C345.59 45.9326 345.952 46.2094 346.269 46.5478C346.586 46.8861 346.973 47.1629 347.129 47.1629C347.284 47.1629 347.545 47.3475 347.708 47.573C347.871 47.7986 348.169 47.9831 348.371 47.9831C348.572 47.9831 348.736 48.0754 348.736 48.1882C348.736 48.301 348.901 48.3933 349.102 48.3933C349.304 48.3933 349.602 48.5778 349.765 48.8034C349.928 49.0289 350.226 49.2135 350.427 49.2135C350.628 49.2135 350.793 49.3058 350.793 49.4185C350.793 49.5313 350.978 49.6236 351.204 49.6236C351.43 49.6236 351.615 49.7159 351.615 49.8287C351.615 49.9414 351.8 50.0337 352.026 50.0337C352.253 50.0337 352.438 50.126 352.438 50.2388C352.438 50.3515 352.623 50.4438 352.849 50.4438C353.075 50.4438 353.26 50.5361 353.26 50.6489C353.26 50.7617 353.445 50.8539 353.671 50.8539C353.898 50.8539 354.083 50.9462 354.083 51.059C354.083 51.1718 354.268 51.264 354.494 51.264C354.72 51.264 354.905 51.3563 354.905 51.4691C354.905 51.5819 355.09 51.6742 355.316 51.6742C355.543 51.6742 355.728 51.7664 355.728 51.8792C355.728 51.992 355.913 52.0843 356.139 52.0843C356.365 52.0843 356.55 52.1765 356.55 52.2893C356.55 52.4021 356.715 52.4944 356.916 52.4944C357.117 52.4944 357.415 52.6789 357.578 52.9045C357.741 53.1301 357.995 53.3146 358.142 53.3146C358.517 53.3146 360.663 55.4933 360.663 55.8733C360.663 56.0449 360.755 56.1854 360.868 56.1854C360.984 56.1854 361.074 56.768 361.074 57.5228V58.8599L359.947 59.9834C359.178 60.7506 358.657 61.1067 358.302 61.1067C358.017 61.1067 357.784 61.199 357.784 61.3118C357.784 61.4361 356.893 61.5169 355.522 61.5169C354.151 61.5169 353.26 61.4361 353.26 61.3118C353.26 61.199 352.983 61.1067 352.643 61.1067C352.304 61.1067 352.026 61.0145 352.026 60.9017C352.026 60.7889 351.841 60.6966 351.615 60.6966C351.389 60.6966 351.204 60.6044 351.204 60.4916C351.204 60.3788 351.019 60.2865 350.793 60.2865C350.567 60.2865 350.381 60.1942 350.381 60.0815C350.381 59.9687 350.196 59.8764 349.97 59.8764C349.744 59.8764 349.559 59.7841 349.559 59.6713C349.559 59.5586 349.394 59.4663 349.193 59.4663C348.992 59.4663 348.694 59.2817 348.531 59.0562C348.368 58.8306 348.112 58.6461 347.961 58.6461C347.811 58.6461 347.046 57.9967 346.261 57.2029L344.834 55.7599L343.907 56.6849C343.396 57.1937 342.979 57.7073 342.979 57.8265C342.979 57.9456 341.869 59.1448 340.512 60.4916C339.154 61.8384 338.044 63.0609 338.044 63.2086C338.044 63.3562 337.859 63.6099 337.633 63.7725C337.407 63.9351 337.222 64.1871 337.222 64.3327C337.222 64.6782 341.454 68.8989 341.8 68.8989C341.946 68.8989 342.199 69.0834 342.362 69.309C342.525 69.5345 342.823 69.7191 343.024 69.7191C343.226 69.7191 343.39 69.8114 343.39 69.9242C343.39 70.0369 343.575 70.1292 343.802 70.1292C344.028 70.1292 344.213 70.2215 344.213 70.3343C344.213 70.447 344.398 70.5393 344.624 70.5393C344.85 70.5393 345.035 70.6316 345.035 70.7444C345.035 70.8572 345.22 70.9494 345.447 70.9494C345.673 70.9494 345.858 71.0417 345.858 71.1545C345.858 71.2673 346.043 71.3595 346.269 71.3595C346.495 71.3595 346.68 71.4518 346.68 71.5646C346.68 71.6774 346.958 71.7697 347.297 71.7697C347.636 71.7697 347.914 71.8619 347.914 71.9747C347.914 72.0875 348.377 72.1798 348.942 72.1798C349.508 72.1798 349.97 72.2721 349.97 72.3848C349.97 72.5019 350.587 72.5899 351.41 72.5899C352.232 72.5899 352.849 72.6779 352.849 72.7949C352.849 72.918 353.671 73 354.905 73C356.139 73 356.961 72.918 356.961 72.7949C356.961 72.6779 357.578 72.5899 358.401 72.5899C359.223 72.5899 359.84 72.5019 359.84 72.3848C359.84 72.2721 360.21 72.1798 360.663 72.1798C361.115 72.1798 361.485 72.0875 361.485 71.9747C361.485 71.8619 361.763 71.7697 362.102 71.7697C362.441 71.7697 362.719 71.6774 362.719 71.5646C362.719 71.4518 362.996 71.3595 363.336 71.3595C363.675 71.3595 363.953 71.2673 363.953 71.1545C363.953 71.0417 364.138 70.9494 364.364 70.9494C364.59 70.9494 364.775 70.8572 364.775 70.7444C364.775 70.6316 364.94 70.5393 365.141 70.5393C365.342 70.5393 365.64 70.3548 365.803 70.1292C365.966 69.9037 366.219 69.7191 366.365 69.7191C366.712 69.7191 370.533 65.909 370.533 65.5634C370.533 65.4176 370.718 65.1654 370.944 65.0028C371.17 64.8402 371.355 64.5431 371.355 64.3423C371.355 64.1418 371.448 63.9775 371.561 63.9775C371.674 63.9775 371.766 63.793 371.766 63.5674C371.766 63.3419 371.859 63.1573 371.972 63.1573C372.085 63.1573 372.178 62.8805 372.178 62.5421C372.178 62.2038 372.27 61.927 372.383 61.927C372.496 61.927 372.589 61.5579 372.589 61.1067C372.589 60.6556 372.681 60.2865 372.794 60.2865C372.922 60.2865 373 59.1245 373 57.2107C373 55.2969 372.922 54.1348 372.794 54.1348C372.681 54.1348 372.589 53.7657 372.589 53.3146C372.589 52.8635 372.496 52.4944 372.383 52.4944C372.27 52.4944 372.178 52.2176 372.178 51.8792C372.178 51.5409 372.085 51.264 371.972 51.264C371.859 51.264 371.766 51.0795 371.766 50.8539C371.766 50.6284 371.674 50.4438 371.561 50.4438C371.448 50.4438 371.355 50.2593 371.355 50.0337C371.355 49.8081 371.262 49.6236 371.149 49.6236C371.036 49.6236 370.944 49.4762 370.944 49.2957C370.944 49.1155 370.666 48.7092 370.327 48.3933C369.988 48.0773 369.71 47.7141 369.71 47.5864C369.71 47.287 368.355 45.9326 368.056 45.9326C367.93 45.9326 367.472 45.5635 367.037 45.1124C366.602 44.6612 366.121 44.2921 365.967 44.2921C365.814 44.2921 365.555 44.1076 365.392 43.882C365.229 43.6565 364.931 43.4719 364.73 43.4719C364.529 43.4719 364.364 43.3796 364.364 43.2669C364.364 43.1541 364.199 43.0618 363.998 43.0618C363.797 43.0618 363.499 42.8772 363.336 42.6517C363.173 42.4261 362.875 42.2416 362.673 42.2416C362.472 42.2416 362.308 42.1493 362.308 42.0365C362.308 41.9237 362.123 41.8315 361.896 41.8315C361.67 41.8315 361.485 41.7392 361.485 41.6264C361.485 41.5136 361.3 41.4213 361.074 41.4213C360.848 41.4213 360.663 41.3291 360.663 41.2163C360.663 41.1035 360.478 41.0112 360.251 41.0112C360.025 41.0112 359.84 40.919 359.84 40.8062C359.84 40.6934 359.655 40.6011 359.429 40.6011C359.203 40.6011 359.018 40.5088 359.018 40.3961C359.018 40.2833 358.833 40.191 358.606 40.191C358.38 40.191 358.195 40.0987 358.195 39.986C358.195 39.8732 358.01 39.7809 357.784 39.7809C357.558 39.7809 357.373 39.6886 357.373 39.5758C357.373 39.4631 357.188 39.3708 356.961 39.3708C356.735 39.3708 356.55 39.2785 356.55 39.1657C356.55 39.0529 356.365 38.9607 356.139 38.9607C355.913 38.9607 355.728 38.8684 355.728 38.7556C355.728 38.6428 355.543 38.5506 355.316 38.5506C355.09 38.5506 354.905 38.4583 354.905 38.3455C354.905 38.2327 354.72 38.1404 354.494 38.1404C354.268 38.1404 354.083 38.0482 354.083 37.9354C354.083 37.8226 353.918 37.7303 353.717 37.7303C353.516 37.7303 353.218 37.5458 353.055 37.3202C352.892 37.0947 352.636 36.9101 352.486 36.9101C352.111 36.9101 351.204 35.974 351.204 35.5865C351.204 35.4122 351.111 35.2697 350.998 35.2697C350.885 35.2697 350.793 34.9006 350.793 34.4494C350.793 33.9983 350.885 33.6292 350.998 33.6292C351.111 33.6292 351.204 33.4877 351.204 33.3149C351.204 32.9066 352.536 31.5787 352.945 31.5787C353.118 31.5787 353.26 31.4864 353.26 31.3736C353.26 31.2506 354.083 31.1685 355.316 31.1685C356.55 31.1685 357.373 31.2506 357.373 31.3736C357.373 31.4864 357.65 31.5787 357.99 31.5787C358.329 31.5787 358.606 31.6709 358.606 31.7837C358.606 31.8965 358.791 31.9888 359.018 31.9888C359.244 31.9888 359.429 32.081 359.429 32.1938C359.429 32.3066 359.614 32.3989 359.84 32.3989C360.066 32.3989 360.251 32.4912 360.251 32.6039C360.251 32.7167 360.397 32.809 360.576 32.809C360.755 32.809 361.256 33.1781 361.691 33.6292C362.125 34.0803 362.59 34.4494 362.723 34.4494C362.856 34.4494 363.224 34.7263 363.541 35.0646C363.858 35.403 364.22 35.6798 364.345 35.6798C364.47 35.6798 366.29 33.9663 368.39 31.8723C372.177 28.0964 372.205 28.0617 371.782 27.6959C371.547 27.4929 371.355 27.2206 371.355 27.0908C371.355 26.7873 368.764 24.1966 368.46 24.1966C368.333 24.1966 367.971 23.9198 367.654 23.5815C367.337 23.2431 366.93 22.9663 366.749 22.9663C366.568 22.9663 366.42 22.874 366.42 22.7612C366.42 22.6485 366.255 22.5562 366.054 22.5562C365.853 22.5562 365.555 22.3716 365.392 22.1461C365.218 21.9053 364.86 21.736 364.524 21.736C364.21 21.736 363.953 21.6437 363.953 21.5309C363.953 21.4181 363.768 21.3258 363.541 21.3258C363.315 21.3258 363.13 21.2336 363.13 21.1208C363.13 21.008 362.853 20.9157 362.513 20.9157C362.174 20.9157 361.896 20.8235 361.896 20.7107C361.896 20.5979 361.619 20.5056 361.279 20.5056C360.94 20.5056 360.663 20.4133 360.663 20.3006C360.663 20.1878 360.2 20.0955 359.635 20.0955C359.069 20.0955 358.606 20.0032 358.606 19.8904C358.606 19.7623 357.373 19.6854 355.316 19.6854C353.26 19.6854 352.026 19.7623 352.026 19.8904ZM1.64498 46.3427V71.7697H7.81367H13.9824V46.3427V20.9157H7.81367H1.64498V46.3427ZM78.1367 21.1208C78.1367 21.2336 78.2292 21.3258 78.3423 21.3258C78.4554 21.3258 78.548 21.5104 78.548 21.736C78.548 21.9615 78.6405 22.1461 78.7536 22.1461C78.8667 22.1461 78.9592 22.4229 78.9592 22.7612C78.9592 23.0996 79.0517 23.3764 79.1648 23.3764C79.2779 23.3764 79.3705 23.561 79.3705 23.7865C79.3705 24.0121 79.463 24.1966 79.5761 24.1966C79.6892 24.1966 79.7817 24.3812 79.7817 24.6067C79.7817 24.8323 79.8742 25.0169 79.9873 25.0169C80.1004 25.0169 80.1929 25.2937 80.1929 25.632C80.1929 25.9704 80.2855 26.2472 80.3986 26.2472C80.5117 26.2472 80.6042 26.4317 80.6042 26.6573C80.6042 26.8829 80.6967 27.0674 80.8098 27.0674C80.9229 27.0674 81.0154 27.252 81.0154 27.4775C81.0154 27.7031 81.108 27.8876 81.2211 27.8876C81.3342 27.8876 81.4267 28.1645 81.4267 28.5028C81.4267 28.8412 81.5192 29.118 81.6323 29.118C81.7454 29.118 81.8379 29.3025 81.8379 29.5281C81.8379 29.7537 81.9305 29.9382 82.0436 29.9382C82.1566 29.9382 82.2492 30.1228 82.2492 30.3483C82.2492 30.5739 82.3417 30.7584 82.4548 30.7584C82.5679 30.7584 82.6604 31.0353 82.6604 31.3736C82.6604 31.7119 82.7529 31.9888 82.866 31.9888C82.9791 31.9888 83.0717 32.1733 83.0717 32.3989C83.0717 32.6244 83.1642 32.809 83.2773 32.809C83.3904 32.809 83.4829 32.9935 83.4829 33.2191C83.4829 33.4447 83.5754 33.6292 83.6885 33.6292C83.8016 33.6292 83.8942 33.906 83.8942 34.2444C83.8942 34.5827 83.9867 34.8596 84.0998 34.8596C84.2129 34.8596 84.3054 35.0441 84.3054 35.2697C84.3054 35.4952 84.3979 35.6798 84.511 35.6798C84.6241 35.6798 84.7167 35.8643 84.7167 36.0899C84.7167 36.3154 84.8092 36.5 84.9223 36.5C85.0354 36.5 85.1279 36.7768 85.1279 37.1152C85.1279 37.4535 85.2204 37.7303 85.3335 37.7303C85.4466 37.7303 85.5391 37.9149 85.5391 38.1404C85.5391 38.366 85.6317 38.5506 85.7448 38.5506C85.8579 38.5506 85.9504 38.7351 85.9504 38.9607C85.9504 39.1862 86.0429 39.3708 86.156 39.3708C86.2691 39.3708 86.3616 39.6476 86.3616 39.986C86.3616 40.3243 86.4542 40.6011 86.5673 40.6011C86.6803 40.6011 86.7729 40.7857 86.7729 41.0112C86.7729 41.2368 86.8654 41.4213 86.9785 41.4213C87.0916 41.4213 87.1841 41.6059 87.1841 41.8315C87.1841 42.057 87.2767 42.2416 87.3897 42.2416C87.5028 42.2416 87.5954 42.5184 87.5954 42.8567C87.5954 43.1951 87.6879 43.4719 87.801 43.4719C87.9141 43.4719 88.0066 43.6565 88.0066 43.882C88.0066 44.1076 88.0991 44.2921 88.2122 44.2921C88.3253 44.2921 88.4179 44.569 88.4179 44.9073C88.4179 45.2456 88.5104 45.5225 88.6235 45.5225C88.7366 45.5225 88.8291 45.707 88.8291 45.9326C88.8291 46.1581 88.9216 46.3427 89.0347 46.3427C89.1478 46.3427 89.2404 46.5272 89.2404 46.7528C89.2404 46.9784 89.3329 47.1629 89.446 47.1629C89.5591 47.1629 89.6516 47.4397 89.6516 47.7781C89.6516 48.1164 89.7441 48.3933 89.8572 48.3933C89.9703 48.3933 90.0628 48.5778 90.0628 48.8034C90.0628 49.0289 90.1554 49.2135 90.2685 49.2135C90.3816 49.2135 90.4741 49.398 90.4741 49.6236C90.4741 49.8492 90.5666 50.0337 90.6797 50.0337C90.7928 50.0337 90.8853 50.3105 90.8853 50.6489C90.8853 50.9872 90.9779 51.264 91.091 51.264C91.2041 51.264 91.2966 51.4486 91.2966 51.6742C91.2966 51.8997 91.3891 52.0843 91.5022 52.0843C91.6153 52.0843 91.7078 52.2688 91.7078 52.4944C91.7078 52.7199 91.8004 52.9045 91.9134 52.9045C92.0265 52.9045 92.1191 53.1813 92.1191 53.5197C92.1191 53.858 92.2116 54.1348 92.3247 54.1348C92.4378 54.1348 92.5303 54.3194 92.5303 54.5449C92.5303 54.7705 92.6229 54.9551 92.7359 54.9551C92.849 54.9551 92.9416 55.1396 92.9416 55.3652C92.9416 55.5907 93.0341 55.7753 93.1472 55.7753C93.2603 55.7753 93.3528 56.0521 93.3528 56.3905C93.3528 56.7288 93.4453 57.0056 93.5584 57.0056C93.6715 57.0056 93.7641 57.1902 93.7641 57.4157C93.7641 57.6413 93.8566 57.8258 93.9697 57.8258C94.0828 57.8258 94.1753 58.0104 94.1753 58.236C94.1753 58.4615 94.2678 58.6461 94.3809 58.6461C94.494 58.6461 94.5865 58.9229 94.5865 59.2612C94.5865 59.5996 94.6791 59.8764 94.7922 59.8764C94.9053 59.8764 94.9978 60.061 94.9978 60.2865C94.9978 60.5121 95.0903 60.6966 95.2034 60.6966C95.3165 60.6966 95.409 60.8812 95.409 61.1067C95.409 61.3323 95.5016 61.5169 95.6147 61.5169C95.7278 61.5169 95.8203 61.7937 95.8203 62.132C95.8203 62.4704 95.9128 62.7472 96.0259 62.7472C96.139 62.7472 96.2315 62.9317 96.2315 63.1573C96.2315 63.3829 96.3241 63.5674 96.4372 63.5674C96.5502 63.5674 96.6428 63.752 96.6428 63.9775C96.6428 64.2031 96.7353 64.3876 96.8484 64.3876C96.9615 64.3876 97.054 64.6645 97.054 65.0028C97.054 65.3412 97.1466 65.618 97.2596 65.618C97.3727 65.618 97.4653 65.8025 97.4653 66.0281C97.4653 66.2536 97.5578 66.4382 97.6709 66.4382C97.784 66.4382 97.8765 66.6227 97.8765 66.8483C97.8765 67.0739 97.969 67.2584 98.0821 67.2584C98.1952 67.2584 98.2878 67.5353 98.2878 67.8736C98.2878 68.2119 98.3803 68.4888 98.4934 68.4888C98.6065 68.4888 98.699 68.6733 98.699 68.8989C98.699 69.1244 98.7915 69.309 98.9046 69.309C99.0177 69.309 99.1103 69.5858 99.1103 69.9242C99.1103 70.2625 99.2028 70.5393 99.3159 70.5393C99.429 70.5393 99.5215 70.6843 99.5215 70.8615C99.5215 71.6772 99.9611 71.7697 103.84 71.7697C107.718 71.7697 108.158 71.6772 108.158 70.8615C108.158 70.6843 108.25 70.5393 108.363 70.5393C108.476 70.5393 108.569 70.3548 108.569 70.1292C108.569 69.9037 108.661 69.7191 108.775 69.7191C108.888 69.7191 108.98 69.5345 108.98 69.309C108.98 69.0834 109.073 68.8989 109.186 68.8989C109.299 68.8989 109.391 68.622 109.391 68.2837C109.391 67.9454 109.484 67.6685 109.597 67.6685C109.71 67.6685 109.803 67.484 109.803 67.2584C109.803 67.0329 109.895 66.8483 110.008 66.8483C110.121 66.8483 110.214 66.6638 110.214 66.4382C110.214 66.2126 110.306 66.0281 110.42 66.0281C110.533 66.0281 110.625 65.7513 110.625 65.4129C110.625 65.0746 110.718 64.7978 110.831 64.7978C110.944 64.7978 111.036 64.6132 111.036 64.3876C111.036 64.1621 111.129 63.9775 111.242 63.9775C111.355 63.9775 111.448 63.793 111.448 63.5674C111.448 63.3419 111.54 63.1573 111.653 63.1573C111.766 63.1573 111.859 62.8805 111.859 62.5421C111.859 62.2038 111.951 61.927 112.065 61.927C112.178 61.927 112.27 61.7424 112.27 61.5169C112.27 61.2913 112.363 61.1067 112.476 61.1067C112.589 61.1067 112.681 60.9222 112.681 60.6966C112.681 60.4711 112.774 60.2865 112.887 60.2865C113 60.2865 113.093 60.0097 113.093 59.6713C113.093 59.333 113.185 59.0562 113.298 59.0562C113.411 59.0562 113.504 58.8716 113.504 58.6461C113.504 58.4205 113.596 58.236 113.709 58.236C113.823 58.236 113.915 58.0514 113.915 57.8258C113.915 57.6003 114.008 57.4157 114.121 57.4157C114.234 57.4157 114.326 57.1389 114.326 56.8006C114.326 56.4622 114.419 56.1854 114.532 56.1854C114.645 56.1854 114.738 56.0008 114.738 55.7753C114.738 55.5497 114.83 55.3652 114.943 55.3652C115.056 55.3652 115.149 55.1806 115.149 54.9551C115.149 54.7295 115.241 54.5449 115.354 54.5449C115.468 54.5449 115.56 54.3604 115.56 54.1348C115.56 53.9093 115.653 53.7247 115.766 53.7247C115.879 53.7247 115.971 53.4479 115.971 53.1095C115.971 52.7712 116.064 52.4944 116.177 52.4944C116.29 52.4944 116.383 52.3098 116.383 52.0843C116.383 51.8587 116.475 51.6742 116.588 51.6742C116.701 51.6742 116.794 51.4896 116.794 51.264C116.794 51.0385 116.886 50.8539 116.999 50.8539C117.113 50.8539 117.205 50.5771 117.205 50.2388C117.205 49.9004 117.298 49.6236 117.411 49.6236C117.524 49.6236 117.616 49.439 117.616 49.2135C117.616 48.9879 117.709 48.8034 117.822 48.8034C117.935 48.8034 118.028 48.5265 118.028 48.1882C118.028 47.8499 118.12 47.573 118.233 47.573C118.346 47.573 118.439 47.3885 118.439 47.1629C118.439 46.9374 118.531 46.7528 118.644 46.7528C118.758 46.7528 118.85 46.5683 118.85 46.3427C118.85 46.1171 118.943 45.9326 119.056 45.9326C119.169 45.9326 119.261 45.748 119.261 45.5225C119.261 45.2969 119.354 45.1124 119.467 45.1124C119.58 45.1124 119.673 44.8355 119.673 44.4972C119.673 44.1588 119.765 43.882 119.878 43.882C119.991 43.882 120.084 43.6975 120.084 43.4719C120.084 43.2463 120.176 43.0618 120.289 43.0618C120.403 43.0618 120.495 42.8772 120.495 42.6517C120.495 42.4261 120.588 42.2416 120.701 42.2416C120.814 42.2416 120.906 41.9647 120.906 41.6264C120.906 41.2881 120.999 41.0112 121.112 41.0112C121.225 41.0112 121.318 40.8267 121.318 40.6011C121.318 40.3756 121.41 40.191 121.523 40.191C121.636 40.191 121.729 40.0065 121.729 39.7809C121.729 39.5553 121.821 39.3708 121.934 39.3708C122.047 39.3708 122.14 39.094 122.14 38.7556C122.14 38.4173 122.233 38.1404 122.346 38.1404C122.459 38.1404 122.551 37.9559 122.551 37.7303C122.551 37.5048 122.644 37.3202 122.757 37.3202C122.87 37.3202 122.963 37.1357 122.963 36.9101C122.963 36.6845 123.055 36.5 123.168 36.5C123.281 36.5 123.374 36.2232 123.374 35.8848C123.374 35.5465 123.466 35.2697 123.579 35.2697C123.692 35.2697 123.785 35.0851 123.785 34.8596C123.785 34.634 123.878 34.4494 123.991 34.4494C124.104 34.4494 124.196 34.2649 124.196 34.0393C124.196 33.8138 124.289 33.6292 124.402 33.6292C124.515 33.6292 124.607 33.3524 124.607 33.014C124.607 32.6757 124.7 32.3989 124.813 32.3989C124.926 32.3989 125.019 32.2143 125.019 31.9888C125.019 31.7632 125.111 31.5787 125.224 31.5787C125.337 31.5787 125.43 31.3941 125.43 31.1685C125.43 30.943 125.523 30.7584 125.636 30.7584C125.749 30.7584 125.841 30.4816 125.841 30.1433C125.841 29.8049 125.934 29.5281 126.047 29.5281C126.16 29.5281 126.252 29.3435 126.252 29.118C126.252 28.8924 126.345 28.7079 126.458 28.7079C126.571 28.7079 126.664 28.5233 126.664 28.2978C126.664 28.0722 126.756 27.8876 126.869 27.8876C126.982 27.8876 127.075 27.6108 127.075 27.2725C127.075 26.9341 127.168 26.6573 127.281 26.6573C127.394 26.6573 127.486 26.4728 127.486 26.2472C127.486 26.0216 127.579 25.8371 127.692 25.8371C127.805 25.8371 127.897 25.6525 127.897 25.427C127.897 25.2014 127.99 25.0169 128.103 25.0169C128.216 25.0169 128.309 24.74 128.309 24.4017C128.309 24.0633 128.401 23.7865 128.514 23.7865C128.627 23.7865 128.72 23.602 128.72 23.3764C128.72 23.1508 128.812 22.9663 128.926 22.9663C129.039 22.9663 129.131 22.7817 129.131 22.5562C129.131 22.3306 129.224 22.1461 129.337 22.1461C129.45 22.1461 129.542 21.8692 129.542 21.5309V20.9157H123.168C116.931 20.9157 116.794 20.9245 116.794 21.3258C116.794 21.5514 116.701 21.736 116.588 21.736C116.475 21.736 116.383 22.0128 116.383 22.3511C116.383 22.6895 116.29 22.9663 116.177 22.9663C116.064 22.9663 115.971 23.1508 115.971 23.3764C115.971 23.602 115.879 23.7865 115.766 23.7865C115.653 23.7865 115.56 23.9711 115.56 24.1966C115.56 24.4222 115.468 24.6067 115.354 24.6067C115.241 24.6067 115.149 24.8836 115.149 25.2219C115.149 25.5603 115.056 25.8371 114.943 25.8371C114.83 25.8371 114.738 26.0216 114.738 26.2472C114.738 26.4728 114.645 26.6573 114.532 26.6573C114.419 26.6573 114.326 26.8419 114.326 27.0674C114.326 27.293 114.234 27.4775 114.121 27.4775C114.008 27.4775 113.915 27.6621 113.915 27.8876C113.915 28.1132 113.823 28.2978 113.709 28.2978C113.596 28.2978 113.504 28.5746 113.504 28.9129C113.504 29.2513 113.411 29.5281 113.298 29.5281C113.185 29.5281 113.093 29.7126 113.093 29.9382C113.093 30.1638 113 30.3483 112.887 30.3483C112.774 30.3483 112.681 30.6251 112.681 30.9635C112.681 31.3018 112.589 31.5787 112.476 31.5787C112.363 31.5787 112.27 31.7632 112.27 31.9888C112.27 32.2143 112.178 32.3989 112.065 32.3989C111.951 32.3989 111.859 32.5834 111.859 32.809C111.859 33.0345 111.766 33.2191 111.653 33.2191C111.54 33.2191 111.448 33.4959 111.448 33.8343C111.448 34.1726 111.355 34.4494 111.242 34.4494C111.129 34.4494 111.036 34.634 111.036 34.8596C111.036 35.0851 110.944 35.2697 110.831 35.2697C110.718 35.2697 110.625 35.4542 110.625 35.6798C110.625 35.9053 110.533 36.0899 110.42 36.0899C110.306 36.0899 110.214 36.2744 110.214 36.5C110.214 36.7256 110.121 36.9101 110.008 36.9101C109.895 36.9101 109.803 37.1869 109.803 37.5253C109.803 37.8636 109.71 38.1404 109.597 38.1404C109.484 38.1404 109.391 38.325 109.391 38.5506C109.391 38.7761 109.299 38.9607 109.186 38.9607C109.073 38.9607 108.98 39.1452 108.98 39.3708C108.98 39.5963 108.888 39.7809 108.775 39.7809C108.661 39.7809 108.569 40.0577 108.569 40.3961C108.569 40.7344 108.476 41.0112 108.363 41.0112C108.25 41.0112 108.158 41.1958 108.158 41.4213C108.158 41.6469 108.065 41.8315 107.952 41.8315C107.839 41.8315 107.746 42.016 107.746 42.2416C107.746 42.4671 107.654 42.6517 107.541 42.6517C107.428 42.6517 107.335 42.9285 107.335 43.2669C107.335 43.6052 107.243 43.882 107.13 43.882C107.016 43.882 106.924 44.0666 106.924 44.2921C106.924 44.5177 106.831 44.7022 106.718 44.7022C106.605 44.7022 106.513 44.8868 106.513 45.1124C106.513 45.3379 106.42 45.5225 106.307 45.5225C106.194 45.5225 106.101 45.7993 106.101 46.1376C106.101 46.476 106.009 46.7528 105.896 46.7528C105.783 46.7528 105.69 46.9374 105.69 47.1629C105.69 47.3885 105.598 47.573 105.485 47.573C105.371 47.573 105.279 47.7576 105.279 47.9831C105.279 48.2087 105.186 48.3933 105.073 48.3933C104.96 48.3933 104.868 48.6701 104.868 49.0084C104.868 49.3468 104.775 49.6236 104.662 49.6236C104.549 49.6236 104.456 49.8081 104.456 50.0337C104.456 50.307 104.319 50.4438 104.045 50.4438C103.771 50.4438 103.634 50.307 103.634 50.0337C103.634 49.8081 103.541 49.6236 103.428 49.6236C103.315 49.6236 103.223 49.439 103.223 49.2135C103.223 48.9879 103.13 48.8034 103.017 48.8034C102.904 48.8034 102.811 48.5265 102.811 48.1882C102.811 47.8499 102.719 47.573 102.606 47.573C102.493 47.573 102.4 47.3885 102.4 47.1629C102.4 46.9374 102.308 46.7528 102.195 46.7528C102.082 46.7528 101.989 46.5683 101.989 46.3427C101.989 46.1171 101.896 45.9326 101.783 45.9326C101.67 45.9326 101.578 45.6558 101.578 45.3174C101.578 44.9791 101.485 44.7022 101.372 44.7022C101.259 44.7022 101.166 44.5177 101.166 44.2921C101.166 44.0666 101.074 43.882 100.961 43.882C100.848 43.882 100.755 43.6975 100.755 43.4719C100.755 43.2463 100.663 43.0618 100.55 43.0618C100.437 43.0618 100.344 42.785 100.344 42.4466C100.344 42.1083 100.251 41.8315 100.138 41.8315C100.025 41.8315 99.9327 41.6469 99.9327 41.4213C99.9327 41.1958 99.8402 41.0112 99.7271 41.0112C99.614 41.0112 99.5215 40.8267 99.5215 40.6011C99.5215 40.3756 99.429 40.191 99.3159 40.191C99.2028 40.191 99.1103 39.9142 99.1103 39.5758C99.1103 39.2375 99.0177 38.9607 98.9046 38.9607C98.7915 38.9607 98.699 38.7761 98.699 38.5506C98.699 38.325 98.6065 38.1404 98.4934 38.1404C98.3803 38.1404 98.2878 37.9559 98.2878 37.7303C98.2878 37.5048 98.1952 37.3202 98.0821 37.3202C97.969 37.3202 97.8765 37.0434 97.8765 36.7051C97.8765 36.3667 97.784 36.0899 97.6709 36.0899C97.5578 36.0899 97.4653 35.9053 97.4653 35.6798C97.4653 35.4542 97.3727 35.2697 97.2596 35.2697C97.1466 35.2697 97.054 35.0851 97.054 34.8596C97.054 34.634 96.9615 34.4494 96.8484 34.4494C96.7353 34.4494 96.6428 34.1726 96.6428 33.8343C96.6428 33.4959 96.5502 33.2191 96.4372 33.2191C96.3241 33.2191 96.2315 33.0345 96.2315 32.809C96.2315 32.5834 96.139 32.3989 96.0259 32.3989C95.9128 32.3989 95.8203 32.122 95.8203 31.7837C95.8203 31.4454 95.7278 31.1685 95.6147 31.1685C95.5016 31.1685 95.409 30.984 95.409 30.7584C95.409 30.5329 95.3165 30.3483 95.2034 30.3483C95.0903 30.3483 94.9978 30.1638 94.9978 29.9382C94.9978 29.7126 94.9053 29.5281 94.7922 29.5281C94.6791 29.5281 94.5865 29.3435 94.5865 29.118C94.5865 28.8924 94.494 28.7079 94.3809 28.7079C94.2678 28.7079 94.1753 28.431 94.1753 28.0927C94.1753 27.7544 94.0828 27.4775 93.9697 27.4775C93.8566 27.4775 93.7641 27.293 93.7641 27.0674C93.7641 26.8419 93.6715 26.6573 93.5584 26.6573C93.4453 26.6573 93.3528 26.4728 93.3528 26.2472C93.3528 26.0216 93.2603 25.8371 93.1472 25.8371C93.0341 25.8371 92.9416 25.5603 92.9416 25.2219C92.9416 24.8836 92.849 24.6067 92.7359 24.6067C92.6229 24.6067 92.5303 24.4222 92.5303 24.1966C92.5303 23.9711 92.4378 23.7865 92.3247 23.7865C92.2116 23.7865 92.1191 23.5097 92.1191 23.1713C92.1191 22.833 92.0265 22.5562 91.9134 22.5562C91.8004 22.5562 91.7078 22.3716 91.7078 22.1461C91.7078 21.9205 91.6153 21.736 91.5022 21.736C91.3891 21.736 91.2966 21.5514 91.2966 21.3258C91.2966 20.9243 91.1594 20.9157 84.7167 20.9157C80.467 20.9157 78.1367 20.9883 78.1367 21.1208ZM255.384 45.9156C255.384 65.6371 255.33 70.9332 255.129 71.0001C254.943 71.0618 254.967 71.1783 255.217 71.4272C255.522 71.7317 256.235 71.7697 261.641 71.7697H267.721V46.3427V20.9157H261.552H255.384V45.9156ZM164.087 30.5534C164.087 30.6661 164.55 30.7584 165.115 30.7584C165.681 30.7584 166.143 30.8507 166.143 30.9635C166.143 31.0763 166.421 31.1685 166.76 31.1685C167.099 31.1685 167.377 31.2608 167.377 31.3736C167.377 31.4864 167.655 31.5787 167.994 31.5787C168.333 31.5787 168.611 31.6709 168.611 31.7837C168.611 31.8965 168.776 31.9888 168.977 31.9888C169.178 31.9888 169.476 32.1733 169.639 32.3989C169.802 32.6244 170.063 32.809 170.219 32.809C170.374 32.809 170.761 33.0858 171.078 33.4242C171.395 33.7625 171.76 34.0393 171.89 34.0393C172.195 34.0393 173.135 34.9762 173.135 35.2805C173.135 35.4097 173.412 35.7739 173.751 36.0899C174.091 36.4059 174.368 36.8121 174.368 36.9923C174.368 37.1728 174.461 37.3202 174.574 37.3202C174.687 37.3202 174.779 37.5048 174.779 37.7303C174.779 37.9559 174.872 38.1404 174.985 38.1404C175.098 38.1404 175.191 38.325 175.191 38.5506C175.191 38.7761 175.283 38.9607 175.396 38.9607C175.509 38.9607 175.602 39.1452 175.602 39.3708C175.602 39.7768 175.465 39.7809 161.825 39.7809C148.186 39.7809 148.049 39.7768 148.049 39.3708C148.049 39.1452 148.141 38.9607 148.254 38.9607C148.367 38.9607 148.46 38.7761 148.46 38.5506C148.46 38.325 148.552 38.1404 148.665 38.1404C148.778 38.1404 148.871 37.9762 148.871 37.7757C148.871 37.5749 149.056 37.2778 149.282 37.1152C149.508 36.9526 149.693 36.6923 149.693 36.5369C149.693 36.3817 149.971 35.9958 150.31 35.6798C150.65 35.3638 150.927 34.9996 150.927 34.8704C150.927 34.5472 151.875 33.6292 152.209 33.6292C152.359 33.6292 152.615 33.4447 152.778 33.2191C152.941 32.9935 153.239 32.809 153.44 32.809C153.641 32.809 153.806 32.7167 153.806 32.6039C153.806 32.4912 153.991 32.3989 154.217 32.3989C154.443 32.3989 154.628 32.3066 154.628 32.1938C154.628 32.081 154.814 31.9888 155.04 31.9888C155.266 31.9888 155.451 31.8965 155.451 31.7837C155.451 31.6709 155.636 31.5787 155.862 31.5787C156.088 31.5787 156.273 31.4864 156.273 31.3736C156.273 31.2608 156.551 31.1685 156.89 31.1685C157.23 31.1685 157.507 31.0763 157.507 30.9635C157.507 30.8495 158.056 30.7584 158.741 30.7584C159.426 30.7584 159.975 30.6674 159.975 30.5534C159.975 30.4303 160.797 30.3483 162.031 30.3483C163.265 30.3483 164.087 30.4303 164.087 30.5534ZM306.378 30.5534C306.378 30.6661 306.841 30.7584 307.406 30.7584C307.972 30.7584 308.434 30.8507 308.434 30.9635C308.434 31.0763 308.712 31.1685 309.051 31.1685C309.391 31.1685 309.668 31.2608 309.668 31.3736C309.668 31.4864 309.853 31.5787 310.079 31.5787C310.306 31.5787 310.491 31.6709 310.491 31.7837C310.491 31.8965 310.676 31.9888 310.902 31.9888C311.128 31.9888 311.313 32.081 311.313 32.1938C311.313 32.3066 311.498 32.3989 311.724 32.3989C311.951 32.3989 312.136 32.4912 312.136 32.6039C312.136 32.7167 312.276 32.809 312.447 32.809C312.825 32.809 316.248 36.1813 316.248 36.5543C316.248 36.7001 316.433 36.9526 316.659 37.1152C316.886 37.2778 317.071 37.5749 317.071 37.7757C317.071 37.9762 317.163 38.1404 317.276 38.1404C317.389 38.1404 317.482 38.4173 317.482 38.7556C317.482 39.094 317.574 39.3708 317.687 39.3708C317.801 39.3708 317.893 39.4631 317.893 39.5758C317.893 39.7106 313.095 39.7809 303.911 39.7809C294.726 39.7809 289.928 39.7106 289.928 39.5758C289.928 39.4631 290.021 39.3708 290.134 39.3708C290.247 39.3708 290.34 39.2065 290.34 39.006C290.34 38.8052 290.525 38.5081 290.751 38.3455C290.977 38.1829 291.162 37.8858 291.162 37.685C291.162 37.4845 291.255 37.3202 291.368 37.3202C291.481 37.3202 291.573 37.1728 291.573 36.9923C291.573 36.8121 291.851 36.4059 292.19 36.0899C292.529 35.7739 292.807 35.4114 292.807 35.2844C292.807 34.9383 294.6 33.2191 294.961 33.2191C295.133 33.2191 295.275 33.1268 295.275 33.014C295.275 32.9013 295.439 32.809 295.64 32.809C295.842 32.809 296.14 32.6244 296.303 32.3989C296.466 32.1733 296.764 31.9888 296.965 31.9888C297.166 31.9888 297.331 31.8965 297.331 31.7837C297.331 31.6709 297.608 31.5787 297.948 31.5787C298.287 31.5787 298.565 31.4864 298.565 31.3736C298.565 31.2608 298.842 31.1685 299.181 31.1685C299.521 31.1685 299.798 31.0763 299.798 30.9635C299.798 30.8507 300.261 30.7584 300.826 30.7584C301.392 30.7584 301.854 30.6661 301.854 30.5534C301.854 30.4291 302.745 30.3483 304.116 30.3483C305.487 30.3483 306.378 30.4291 306.378 30.5534Z" fill="#00BFEB"/>
</svg>
