<svg width="48" height="48" id="Layer_1" data-name="Layer 1" xmlns="http://www.w3.org/2000/svg" viewBox="0 0 82.77 75.94"><defs><style>.cls-1{fill:#00bfeb;}</style></defs><title>lik</title><circle class="cls-1" cx="51.36" cy="30.54" r="10.32" transform="translate(-5.12 54.27) rotate(-67.5)"/><path class="cls-1" d="M90,19.65l-.79-.43a2.65,2.65,0,0,0-3.58,1.1l-.78,1.46-.76-.36a4.61,4.61,0,0,0-7.95-3.77L75,17.12l.42-.78a2.66,2.66,0,0,0-1.09-3.58l-.8-.42A2.65,2.65,0,0,0,70,13.43l-2.87,5.41a2.66,2.66,0,0,0,1.09,3.58l.8.42a2.65,2.65,0,0,0,3.58-1.1l1.06-2,1,.52L68.42,32.36a4.6,4.6,0,0,1-.48.73L59.88,43c-3.06.18-7.41.43-9.37.43-2.25,0-7.71-.33-10.68-.52a1.83,1.83,0,0,0-1.21.39,4,4,0,0,0-1.63.9l-9.64,8.67L25.28,41.55l.86-.22.26,1.08a2.66,2.66,0,0,0,3.19,2l.88-.21a2.65,2.65,0,0,0,2-3.19L31,35a2.66,2.66,0,0,0-3.2-2l-.87.21a2.67,2.67,0,0,0-2,3.2l.39,1.61L24,38.46a4.2,4.2,0,0,0-3-1.24,4.25,4.25,0,0,0-4.13,3.31l-2,.56-.21-.86a2.65,2.65,0,0,0-3.19-1.95l-.88.21a2.65,2.65,0,0,0-2,3.19l1.43,6a2.65,2.65,0,0,0,3.19,2l.88-.22a2.65,2.65,0,0,0,2-3.19L15.61,44l1.54-.39,3.16,17.25a4.23,4.23,0,0,0,7.07,3.44l10.44-9.39V88H63.19V53.54a4.19,4.19,0,0,0,.46-.48L75.32,38.69a4.86,4.86,0,0,0,.58-.89l6.84-13.32.51.27-.51,1a2.64,2.64,0,0,0,1.09,3.58l.8.42a2.66,2.66,0,0,0,3.58-1.09l2.87-5.41A2.64,2.64,0,0,0,90,19.65Z" transform="translate(-8.61 -12.03)"/></svg>